<?xml version="1.0" standalone="no"?>
<!DOCTYPE svg PUBLIC "-//W3C//DTD SVG 1.1//EN" "http://www.w3.org/Graphics/SVG/1.1/DTD/svg11.dtd" >
<svg xmlns="http://www.w3.org/2000/svg">
<metadata>
This is a custom SVG webfont generated by Font Squirrel.
Copyright   : 2007 Vic Fieger
</metadata>
<defs>
<font id="webfontxr6nAlIj" horiz-adv-x="1138" >
<font-face units-per-em="2048" ascent="1638" descent="-410" />
<missing-glyph horiz-adv-x="567" />
<glyph unicode=" "  horiz-adv-x="567" />
<glyph unicode="&#x09;" horiz-adv-x="567" />
<glyph unicode="&#xa0;" horiz-adv-x="567" />
<glyph unicode="!" horiz-adv-x="595" d="M90 45l14 127q6 76 29 170l201 25q90 -23 158 -76l16 -168q-29 -66 -88 -117l-158 -63q-82 16 -158 51zM90 1352l287 96q86 -78 115 -225l-15 -260l15 -66l-64 -242l-55 -182q-78 29 -160 10l-49 119l-45 137l28 273l-28 49v47zM276 1174q14 -25 43 -33q-12 23 -43 33z M293 930l12 -33v33h-12z" />
<glyph unicode="&#x22;" horiz-adv-x="698" d="M90 1184v155l10 23q12 55 45 108l166 -20q6 -25 11 -88l-11 -23l-12 -32l12 -179q-16 -57 -55 -120l-100 -11l-33 11l-10 22q-17 78 -23 154zM367 1174q10 86 10 176q16 63 65 120q76 -4 156 -30l23 -68l-13 -33l-20 -32l10 -156q-14 -63 -55 -131l-121 -23l-23 33z" />
<glyph unicode="#" />
<glyph unicode="$" horiz-adv-x="1286" d="M80 346l29 72l71 14l31 -14h29q82 23 172 28l102 -129q41 86 57 172q-52 61 -129 117q-86 23 -174 72q-53 51 -102 145l-57 172l71 174q46 65 117 129q84 39 254 68l12 88l162 4l2 -82l236 -63q72 -55 129 -115l59 -115l-31 -45q-95 -31 -202 -43l-173 58l-28 -144 l12 -43l334 -145l115 -129l28 -217q-25 -90 -71 -174l-115 -129l-160 -72h-115l-59 -72l-29 -73l-127 -5l-22 140l-254 82l-117 129q-34 63 -57 145zM354 967q6 -16 29 -29q-6 15 -29 29zM369 229l28 17l-28 14v-31zM383 809l59 14q-12 31 -45 43zM457 1038q23 -47 71 -100 q33 14 58 43q-20 53 -58 102zM514 721l14 -43l15 29zM528 129q4 -12 29 -29q-4 19 -29 29zM528 838l29 -43q-6 29 -29 43zM586 1255l14 -28v28h-14zM629 215q6 -20 28 -29q-3 19 -28 29zM674 707q2 -16 28 -29q-3 19 -28 29zM686 172q6 -25 31 -43q-6 25 -31 43zM702 289 l72 -15l14 15l58 129l-86 88zM745 549l15 -31v31h-15zM774 592q4 -18 29 -29q-4 19 -29 29zM831 1198q6 -16 29 -29q-2 19 -29 29zM963 592q6 -29 26 -43zM1020 346q6 -20 29 -29q-2 19 -29 29z" />
<glyph unicode="%" horiz-adv-x="1820" />
<glyph unicode="&#x26;" horiz-adv-x="1570" d="M76 438l14 43q27 68 72 146l117 100q53 47 100 117q-35 43 -86 129l-31 114l17 43q29 72 86 146q55 49 129 86l188 29l43 -15l117 29l157 -57l101 -129l71 -146l-57 -143q-59 -70 -115 -117q-43 -45 -57 -115q66 -45 143 -71q57 33 146 57q84 -25 158 -57l28 -43 l-43 -115v-131l58 -14q45 -51 71 -115l-100 -117q-59 -39 -146 -55l-129 84l-317 -101l-201 -14l-174 14q-68 16 -157 58l-117 100l-72 131zM233 324l46 43l-29 14zM293 469l29 12l-29 15v-27zM350 252l15 -43l14 27zM408 670q6 -35 43 -58q-6 33 -43 58zM479 352 q100 -61 232 -86l88 43q-16 72 -60 129q-68 68 -186 129q-56 -96 -74 -215zM479 1059l15 -43v43h-15zM522 727q31 35 31 86q-22 -34 -31 -86zM639 1016q61 -35 143 -43q39 72 60 143q-70 41 -146 60q-37 -64 -57 -160zM754 627l88 -29l-31 72zM913 541l15 -29v29h-15z M928 381l71 -14l29 43l-57 86zM1014 309l100 -28q68 -27 129 -29l-57 129l-15 -72q-59 8 -114 43q-31 -12 -43 -43z" />
<glyph unicode="'" horiz-adv-x="389" d="M90 1184v155l10 23q12 55 45 108l166 -20q6 -25 11 -88l-11 -23l-12 -32l12 -179q-16 -57 -55 -120l-100 -11l-33 11l-10 22q-17 78 -23 154z" />
<glyph unicode="(" horiz-adv-x="673" d="M82 659l12 13v37l25 229l76 188q31 92 75 177q53 92 127 165q115 -4 178 -112q-59 -90 -90 -205l-61 -213l-14 -166l14 -37l10 -26l-10 -13l-14 -239q47 -98 63 -230l102 -276q-68 -25 -141 -27q-84 45 -137 154q-70 78 -115 176q-39 90 -63 215l-25 39v125zM219 508 l14 -66v54zM270 381q12 -18 39 -27zM297 1014q14 -25 37 -27q-14 23 -37 27z" />
<glyph unicode=")" horiz-adv-x="681" d="M94 1403q37 43 76 78q102 -20 180 -103q55 -80 103 -192q45 -86 63 -217q47 -98 51 -232l15 -51l-15 -129v-39q-14 -102 -63 -203q-29 -94 -88 -192l-105 -178l-90 -51q-53 16 -100 51q6 119 24 202q47 92 64 220q29 102 39 241l12 66l-12 24l-12 334l-15 27l-12 37 q-25 94 -78 219zM365 647q16 -33 51 -39zM377 954q8 -14 24 -24q-1 14 -24 24zM389 391q2 -14 27 -24q-7 12 -27 24zM389 918q6 -29 27 -39zM401 788l15 -51l12 39z" />
<glyph unicode="*" horiz-adv-x="839" d="M57 1174l29 120q39 14 121 29l45 -29l76 -30l14 90q12 71 61 135q74 -27 136 -107q10 -55 59 -88l121 15l31 -29l45 -106l-31 -46q-63 -43 -105 -120l29 -121l-45 -31l-104 -45l-45 31q-45 45 -107 45q-57 -53 -135 -90q-53 41 -88 121l74 135l-136 75zM508 1112 q20 -23 45 -29q-14 19 -45 29z" />
<glyph unicode="+" horiz-adv-x="1193" />
<glyph unicode="," horiz-adv-x="499" d="M98 145q10 18 13 48q35 90 129 131q106 -4 188 -82q-20 -90 -35 -226l23 -176v-37l-47 -106l-95 12l-104 -24q-35 35 -59 84zM227 182q14 -31 47 -37zM252 -55q2 -35 35 -58z" />
<glyph unicode="-" horiz-adv-x="864" d="M94 795q33 78 127 112h242v15h151l103 -15q59 -86 61 -200q-66 -76 -178 -91l-37 -12l-88 12l-90 -12q-113 4 -242 27q-43 60 -49 164z" />
<glyph unicode="." horiz-adv-x="595" d="M86 254q35 68 104 133l166 76q82 -29 150 -90l14 -164l-14 -62q-9 -92 -62 -178l-88 15l-30 -15l-45 -16q-82 27 -164 90zM311 193l15 -29v29h-15z" />
<glyph unicode="/" horiz-adv-x="741" d="M86 74l211 864l65 178l33 230q49 66 129 145q98 -23 131 -129l-49 -246l-82 -194l-129 -717l-82 -211q-80 -61 -180 -82q-43 64 -47 162z" />
<glyph unicode="0" horiz-adv-x="1300" d="M86 621l29 272q10 119 55 244q51 90 145 172l242 86l287 -15q84 -45 200 -129q68 -109 101 -229l57 -258q-23 -131 -28 -287q-23 -117 -70 -241q-58 -89 -160 -173l-141 -59q-43 6 -103 31l-157 -31l-84 43q-104 29 -215 117q-65 92 -117 215q-4 119 -41 242zM213 707 l86 -101q-29 62 -86 101zM270 807h45q-4 41 -28 72zM299 1094q16 -35 57 -43zM356 276l15 -28l57 43l-43 28zM442 563l29 -86l129 -201q102 18 186 115q29 119 29 258l-12 273q-27 109 -117 200q-127 -29 -201 -143l15 -43l-29 -115l29 -100zM872 1208q4 -18 29 -28 q-6 14 -29 28zM887 276q4 -18 28 -28q-3 18 -28 28zM887 750l14 -29v29h-14zM915 1108q2 -37 29 -72l14 58zM958 936q6 -41 43 -72q-6 45 -43 72zM973 508l43 27l28 28l-14 58l-29 -15l-14 15z" />
<glyph unicode="1" horiz-adv-x="999" d="M86 795l12 176q74 88 205 131q98 68 176 145q78 84 160 148q109 -6 250 -45l29 -103l-15 -43v-88l-31 -29q2 -90 31 -264v-248l-14 -43l14 -247q-25 -84 -31 -162l17 -57l-148 -74l-102 14q-133 0 -145 148l14 276q0 106 -29 262l15 103l-15 28q-63 -4 -117 -28 q-86 -59 -219 -72zM422 999l12 -43v43h-12zM553 926q31 31 43 73l-43 15v-88zM582 1116h43q0 33 -29 58zM639 823q12 -33 59 -57l-28 -145l12 -148l-12 -43l12 -29h31v15q2 109 28 262q-14 90 -102 145zM655 926l15 -72v57zM682 240q2 -25 31 -43zM682 1073q12 -20 45 -31 l14 105l-28 27z" />
<glyph unicode="2" horiz-adv-x="1251" d="M70 102q23 88 71 185l86 143l127 127l142 100q78 47 129 113l127 115l16 114l-16 27l-13 43q-57 25 -129 29l-43 -29q-55 -45 -112 -113q-86 -35 -187 -43q-96 20 -170 70q20 80 72 158q45 80 98 141l158 86h227v14l228 -28q88 -45 143 -99q49 -43 113 -129l28 -184 l-57 -199l-256 -229l-141 -98q47 -66 141 -72l227 14q61 -70 86 -155q-4 -96 -86 -172l-155 14l-58 -14l-198 -15l-199 15l-115 -15l-43 15h-184zM297 1083l57 -14l-14 86zM340 1184q4 -12 29 -29q-4 19 -29 29zM469 373l55 -15l29 43l-57 101q-17 -39 -27 -129zM512 301 q29 -61 84 -98q-33 53 -84 98zM596 1296l14 -26v26h-14zM797 1198q6 -29 26 -43q-6 29 -26 43zM866 1126l15 -28v28h-15zM881 842q0 -33 28 -43q55 12 115 43q-8 57 -43 100q-12 -75 -100 -100z" />
<glyph unicode="3" horiz-adv-x="1261" d="M86 371q78 43 184 71q94 -4 189 -43l98 -143q84 12 186 43l29 184q-45 80 -113 131q-104 16 -172 101q23 84 70 143q70 49 145 115l27 57l-55 100l-160 29q-31 -83 -86 -172l-57 -29l-127 43q-90 39 -158 101l98 158l158 100l229 29l158 -15l43 29l186 -86l117 -129 l29 -58l-29 -143l-88 -172l88 -158q51 -59 84 -145l17 -158l-29 -55q-51 -84 -100 -143q-72 -53 -158 -101l-301 -57l-273 86q-74 57 -131 129q-55 58 -98 158zM803 727q27 35 28 74zM815 899l31 -41l57 57q-2 16 -29 27zM815 1245l16 -43v43h-16zM889 629q9 -101 86 -172 q0 101 -86 172z" />
<glyph unicode="4" horiz-adv-x="1370" d="M86 483q37 109 117 219q59 82 176 177l305 381q78 90 221 131l191 -15l28 -131q-12 -63 -14 -117l29 -116l-15 -45v-219l-14 -46l14 -57q59 -86 176 -162l15 -145l-15 -43l-102 -45l-31 14l-57 -28l14 -103l-14 -31v-43q-113 -47 -264 -59l-74 31l14 145l-14 43 q-117 28 -276 31q-133 0 -324 -31q-70 102 -86 264zM260 469q20 -27 88 -86q-20 51 -88 86zM319 512q43 29 43 76zM496 588l59 -31l29 14l159 -28l29 102l-12 57l12 162l-43 15l-162 -177q-40 -44 -71 -114zM715 440q23 -43 71 -45zM743 1012l74 14l14 -45l74 102l-88 45z M891 952q6 -43 29 -73q0 38 -29 73zM920 659q23 -57 71 -102q-18 47 -71 102zM920 807q14 -31 43 -45q-10 33 -43 45zM920 850l14 -29v29h-14zM934 219l14 -29v29h-14zM934 1188l14 -45v45h-14zM948 1200l31 14l-31 17v-31zM1051 483q10 -27 45 -57q-8 30 -45 57z" />
<glyph unicode="5" horiz-adv-x="1257" d="M86 371l55 45l213 12q82 -53 142 -113l57 -43l129 29q61 55 84 170q-35 94 -84 184l-186 29q-92 -57 -185 -86q-100 12 -198 72l-27 57l41 127l14 213l58 213l155 98l383 -41l43 29l199 12l43 -12q49 -74 57 -172q-20 -90 -114 -156l-156 15l-43 -15l-227 29 q-29 -49 -43 -113l43 -57q104 29 213 41q96 -16 198 -70l142 -127l71 -186q-23 -109 -55 -197q-33 -92 -86 -186l-143 -113l-156 -43l-55 15l-185 14l-45 -14l-182 71q-88 63 -143 127zM311 799q6 -35 43 -58q-6 33 -43 58zM328 1194q18 -40 55 -43zM340 883l29 -84l14 84 h-43zM369 938q8 -27 43 -27q-10 17 -43 27zM838 655q39 -20 98 -69q-16 76 -70 141zM907 244q4 -12 29 -29q-2 19 -29 29zM965 457l57 43q-2 18 -29 28z" />
<glyph unicode="6" horiz-adv-x="1294" d="M86 797l41 174q18 66 59 157l86 132l291 145l189 -43l143 12l43 -12q59 -39 117 -102l116 -103q-27 -72 -102 -129l-203 -14l-114 100l-103 43l-43 -29l-88 -131l-12 -26l12 -88q2 -18 31 -29q55 20 174 43l43 29l129 -15q70 -25 145 -71q57 -45 115 -115l59 -145 l-16 -189q-14 -76 -55 -131l-74 -143l-145 -86l-189 -31l-114 14l-43 -14l-160 57l-131 88q-39 61 -101 115q-35 76 -59 174q-12 78 -12 174zM258 680l88 57l-74 17zM272 449l15 -29q35 35 45 72l-45 28zM272 840h117q-33 49 -102 71zM315 637q18 -33 60 -43zM506 506 l12 -43q16 -66 45 -117q41 -49 117 -72q66 6 129 60l29 274l-29 29l-145 43l-129 -72zM997 506l58 -29l28 74l-43 14z" />
<glyph unicode="7" horiz-adv-x="1286" d="M86 1202q46 120 184 172h189l43 -12l112 12l117 -12l41 12l102 -12l44 12l172 -12q59 -27 100 -86l12 -146l-12 -43l-100 -57q-20 -35 -72 -98l-74 -117q-43 -47 -70 -115l-59 -112l-72 -301q-20 -119 -100 -260l-172 -15q-66 18 -129 60l-12 41l28 100l13 172l243 489 l72 101q-31 43 -86 55l-86 -12l-27 12h-45l-155 17q-53 -14 -117 -17l-43 31zM416 1247l12 -28v28h-12zM545 299l43 -12l26 84q-2 14 -26 28zM631 543l28 -15l15 43l-31 17zM743 1159l29 17l-29 14v-31zM831 1247q25 -43 72 -57q-23 30 -72 57z" />
<glyph unicode="8" horiz-adv-x="1269" d="M86 426l12 113q51 84 156 184q-61 102 -113 240l-28 84q34 77 86 153q66 90 196 156q125 4 269 43q139 -29 280 -84q84 -82 141 -199l58 -112l-58 -127l-84 -70q16 -74 56 -127q66 -96 112 -240q-16 -135 -84 -268q-98 -74 -225 -127l-170 -41l-112 14q-133 12 -281 70 l-184 168zM283 356l41 15q-10 53 -41 127v-142zM367 623l57 28q-6 27 -29 43q-26 -32 -28 -71zM451 778l43 -55l43 55h-86zM465 539l14 -154q72 -102 211 -129q82 100 84 242q-76 100 -211 112zM465 1018q31 -92 127 -141q104 12 156 112q-20 94 -113 156q-92 -41 -170 -127 zM748 764l55 -14l14 57l-26 27q-31 -29 -43 -70zM874 694l27 -14l14 29l-26 14zM874 1032q4 -31 27 -57zM889 596q18 -57 69 -98q-18 59 -69 98zM932 356q10 -18 41 -28q-12 20 -41 28z" />
<glyph unicode="9" horiz-adv-x="1300" d="M82 909l29 172q35 70 100 129q59 45 129 60l100 98l187 31l188 -31l143 -72q63 -53 115 -114q41 -59 72 -129l57 -158l-14 -172l14 -203l-115 -315l-114 -101l-144 -71l-188 -31l-201 14l-157 60l-101 114q-39 53 -57 129q90 33 172 43l143 15l43 -15q49 -49 129 -86 q76 14 146 58l28 129l-16 43l16 43h-43v-14l-59 -43l-172 -15l-172 29q-68 41 -129 100q-43 49 -86 131q-25 74 -43 172zM283 1053l71 14l-28 43zM455 895l14 -43l86 -115l43 -45l203 117q-12 63 -15 115l15 43q-25 78 -58 143q-80 20 -174 29l-86 -129q-20 -56 -28 -115z M872 723l115 -117l43 117l-115 -14zM915 334l27 -15l16 43h-28zM1001 520h29l14 29l-28 14z" />
<glyph unicode=":" horiz-adv-x="530" d="M86 940q23 55 84 107l119 69q78 -25 129 -69l12 -35l-12 -84v-35q-4 -80 -23 -156l-155 -12q-63 14 -117 59zM98 240q33 59 82 96l119 70q66 -23 119 -70l24 -166q-25 -88 -47 -143l-155 -25q-63 20 -117 72z" />
<glyph unicode=";" horiz-adv-x="512" d="M86 924q18 63 59 106l119 72q78 -16 144 -60l24 -118l-12 -37q-8 -66 -35 -156q-66 -23 -143 -24l-84 -13l-49 62zM96 193l13 47q78 45 190 71q119 -16 121 -143l-25 -109l25 -286l-12 -35q-74 -49 -179 -62q-94 16 -133 109l13 180v35q-13 87 -13 193zM205 -59l49 -25 l10 121l25 72h-47l-13 -132zM229 874q33 4 47 13l-47 12v-25z" />
<glyph unicode="&#x37e;" horiz-adv-x="512" d="M86 924q18 63 59 106l119 72q78 -16 144 -60l24 -118l-12 -37q-8 -66 -35 -156q-66 -23 -143 -24l-84 -13l-49 62zM96 193l13 47q78 45 190 71q119 -16 121 -143l-25 -109l25 -286l-12 -35q-74 -49 -179 -62q-94 16 -133 109l13 180v35q-13 87 -13 193zM205 -59l49 -25 l10 121l25 72h-47l-13 -132zM229 874q33 4 47 13l-47 12v-25z" />
<glyph unicode="&#x3c;" horiz-adv-x="1193" />
<glyph unicode="=" horiz-adv-x="1193" />
<glyph unicode="&#x3e;" horiz-adv-x="1193" />
<glyph unicode="?" horiz-adv-x="1177" d="M86 985q6 53 27 100l129 185l184 129l268 -15q113 -20 230 -100q80 -63 155 -156l13 -57l-27 -156l-29 -28q-52 -98 -129 -185l-155 -155q-72 -78 -199 -86h-57l-13 -15l-28 15h-29l-57 100l114 199q68 57 156 155l55 113l-69 57q-113 -29 -187 -127l-110 -57l-129 14z M340 1171q6 -16 29 -28q-4 18 -29 28zM365 59l14 156q9 71 43 141l156 -26q49 12 112 12l29 -29l43 -155q-20 -66 -72 -142l-182 -28q-75 22 -143 71zM682 702l41 -28q-12 20 -41 28zM809 1128q8 -43 43 -71q-8 36 -43 71zM879 944q4 -33 28 -57z" />
<glyph unicode="@" horiz-adv-x="2078" />
<glyph unicode="A" horiz-adv-x="1153" d="M-80 141l115 256l14 158l74 131l129 416l55 112q25 66 72 129l129 43q98 -6 172 -28l115 -72q37 -66 57 -129l72 -258l57 -113l43 -145l72 -113q14 -84 43 -143l55 -129l31 -100l-25 -52l-115 -69h-129v-15l-43 15q-55 20 -100 69q-29 74 -33 152l-28 14l-58 -28l-28 14 h-187q-61 -20 -100 -86l-72 -115l-143 -43l-158 29q-47 41 -86 100zM123 213l55 14q-4 18 -28 29zM264 672q18 -31 58 -43zM279 813q37 -66 114 -98q-38 55 -114 98zM379 1130q23 -37 72 -59zM424 485q4 -29 27 -43q-7 29 -27 43zM436 930h58q0 55 -29 112zM494 569l129 -14 q28 12 43 43l-29 129q-31 83 -86 172q-2 -104 -43 -227zM494 1200q18 -31 57 -55l29 26l-29 43zM666 1130q2 -18 28 -28l58 28h-86zM737 442l86 -143q-25 77 -86 143zM795 528l57 70h-57v-70zM795 844q12 -25 43 -43q-12 31 -43 43zM866 741h29v45h-14zM881 641 q6 -18 28 -27q-1 17 -28 27zM938 270q4 -18 29 -28q-4 18 -29 28zM967 371q4 -12 28 -29q-3 19 -28 29z" />
<glyph unicode="B" horiz-adv-x="1312" d="M78 203l28 305l-16 145l16 158l-28 496l72 57l681 -14q133 -23 248 -103q76 -98 86 -246l15 -131l-115 -88l100 -129q49 -109 74 -247q-33 -125 -117 -248q-96 -63 -248 -115l-100 -14l-29 14l-393 -14l-43 14h-43v-14q-131 43 -188 174zM238 1073l14 -43l14 43h-28z M252 362l72 29l-72 29v-58zM252 913q41 -37 88 -43q-29 29 -88 43zM266 217q23 -20 43 -29l15 58q-23 20 -43 28zM266 1102l43 31l-43 14v-45zM309 537q4 -20 31 -29q-4 13 -31 29zM324 1190l16 -29v29h-16zM367 768l16 -129l86 29zM383 1087l43 46l-43 14v-60zM469 580 q0 -106 43 -218q150 10 291 44l28 131l-100 43l-160 -29zM469 913l14 -57h43q92 18 234 29l57 100l-86 45l-74 -14l-43 14h-71l-45 29zM745 668l86 -15q-12 51 -57 72zM905 346l58 -29q49 12 71 60zM905 1059l58 -86q-11 53 -58 86zM963 565l59 29q-6 31 -31 45 q-28 -33 -28 -74zM991 494q0 -29 31 -45l12 45h-43z" />
<glyph unicode="C" horiz-adv-x="1290" d="M92 594l14 194l-14 113l14 29l15 41l69 155l113 111l139 86l168 55q80 -6 185 -28l182 -43q49 -41 110 -113l113 -125q-18 -74 -70 -139q-66 -53 -139 -84q-74 29 -141 84l-125 96l-156 -70q-57 -57 -98 -125l-12 -112l12 -41v-43l55 -168l142 -84q84 12 168 55l112 113 q82 -10 156 -41q57 -47 110 -127q-29 -63 -84 -141l-126 -113l-140 -84l-153 -12l-43 12l-58 -12l-139 26l-154 70l-196 268zM233 748h27v40h-12zM260 705q23 -20 57 -27zM274 565h29v56h-14zM289 930q0 -23 28 -29q27 43 41 98q-10 16 -41 27zM317 510q14 -51 58 -84 q-5 53 -58 84zM387 242q53 23 84 57q-39 -16 -84 -57zM555 1223q40 6 43 43zM569 1126q0 -27 29 -43zM610 242l29 14l-29 14v-28zM752 242q20 -25 57 -41q46 37 111 55q-6 35 -41 55zM795 1182q4 -33 26 -56l15 56h-41zM879 1083l57 43l-31 41z" />
<glyph unicode="D" horiz-adv-x="1384" d="M92 86l31 326l-14 45v118l-17 74l31 62l-31 133l17 252l-17 59q10 121 111 188l305 21l254 12l57 -12q119 -33 240 -104q68 -61 162 -181q52 -108 73 -252l17 -102l-17 -31v-102l-14 -45q-23 -123 -88 -252q-68 -96 -178 -164q-117 -57 -269 -74l-462 -22l-111 28z M227 1096l15 -29v29h-15zM242 176q33 20 59 60l-59 14v-74zM256 903l14 -31v31h-14zM315 1200l45 -31l29 45l-45 15zM332 561l43 45l-43 15v-60zM332 725q6 -16 28 -31q-1 21 -28 31zM344 352q20 -29 62 -43zM375 977l14 -31v31h-14zM508 502q12 -90 104 -150l179 60 l104 180l14 192l-14 43q-37 96 -133 150q-75 22 -165 22q-36 0 -75 -4l-14 -123l14 -45zM539 1155l59 45l-45 14zM584 236q4 -29 28 -46q-5 32 -28 46zM745 1169q20 -37 74 -59q-21 34 -74 59zM836 281l43 -31q-12 22 -43 31zM895 397l14 -28v28h-14zM924 1110q6 -45 45 -88 q-8 49 -45 88zM1028 1008q10 -84 43 -150q-10 74 -43 150zM1042 532q20 -37 60 -45zM1042 799l17 -45v45h-17zM1059 561l12 -14q29 29 45 74l-45 16z" />
<glyph unicode="E" horiz-adv-x="1198" d="M82 295l12 45l17 115l-17 28v88l17 246l-17 205l17 248q41 61 116 114l232 -26l219 12l188 -12l43 12q90 -16 160 -72l14 -159l-14 -43l-43 -74l-102 -14l-29 14l-436 14l45 -145l434 31l43 -17l74 -57l-15 -117q-25 -80 -73 -160l-217 -14l-203 57q-66 -72 -74 -174 q72 -33 174 -43l408 29l45 -29l26 -159q-10 -96 -57 -189l-160 -14l-43 14l-219 29q-102 -27 -203 -29l-202 -31q-78 35 -148 117zM213 426q12 -37 57 -57q-12 39 -57 57zM242 817l14 -43l14 31zM256 221l43 -43q-9 31 -43 43zM256 571q0 -31 29 -59q0 30 -29 59zM270 862 q6 -20 29 -28l14 14zM299 512l14 -29v29h-14zM299 979q37 34 43 86zM328 762l14 -45l14 28zM371 383q6 -18 30 -31q-2 22 -30 31zM387 238l29 -45q29 53 28 116zM604 252l14 -59l60 28zM735 1253q20 -45 72 -71q-21 34 -72 71zM750 209q37 16 43 57z" />
<glyph unicode="F" horiz-adv-x="1181" d="M86 197l29 186l-17 184l17 158l-17 199l17 129l-17 43l-12 129l29 43l98 98l270 -43l29 14h43v15l186 -29l185 14l157 -26q16 -53 27 -172q-25 -88 -70 -144l-186 -14l-199 14l-114 29l-41 -14l-31 -41l14 -115l43 -14l285 28l201 -14l43 -172l-43 -158l-185 -28l-286 45 q-25 -6 -41 -29l-17 -43q14 -53 17 -115l12 -129l-12 -43l12 -114l-57 -27l-156 -14q-78 6 -158 41q-35 49 -55 129zM270 254h29v29h-14zM270 1053q41 -78 129 -84q-35 68 -129 84zM270 1153q10 -18 43 -29q-10 19 -43 29zM285 897q0 -51 28 -74l29 60zM313 369 q4 -18 29 -29q-6 15 -29 29zM328 512l43 -29q-10 19 -43 29zM399 711l41 -15l-14 58zM414 1210l41 -28q-12 20 -41 28zM598 725l29 -57q-6 32 -29 57zM713 1110l43 57l-43 15v-72zM782 711q12 -31 45 -43q-12 31 -45 43zM868 696l43 -28q-10 18 -43 28z" />
<glyph unicode="G" horiz-adv-x="1376" d="M78 586l14 41v229l-14 43l86 201l143 129q76 74 201 98l213 57l244 -43q70 -49 155 -129q86 -59 160 -143q-29 -82 -117 -141l-170 -43l-43 28q-72 51 -172 101q-115 -12 -227 -58q-47 -80 -86 -186l27 -229q57 -82 129 -156l157 -14l58 26q51 45 86 115 q-66 -10 -172 -14l-29 43l-41 186l12 43l72 72l344 -29l43 14q129 -6 129 -143v-500q-12 -111 -129 -129q-106 0 -172 101l-158 -115l-200 -14l-256 71q-68 66 -158 129l-115 170zM250 784l14 -43v43h-14zM264 569l43 -28q-6 57 -28 143zM322 512q6 -31 43 -55q-6 32 -43 55 zM336 727l14 -29v29h-14zM365 342l14 -57l57 28zM492 242q6 -20 28 -29q-3 19 -28 29zM520 1085q4 -10 31 -28q-2 18 -31 28zM551 227q8 -31 41 -43zM680 156l55 43q-4 18 -28 28q-23 -32 -27 -71zM692 1155l15 -14l57 45l-57 43zM879 1155l71 -43q-24 33 -71 43zM936 285 l14 -29v29h-14zM1008 385h86l-29 100l55 27q-20 20 -55 29zM1051 641l28 -29l58 43l-72 15zM1094 213h26v43h-12z" />
<glyph unicode="H" horiz-adv-x="1300" d="M74 164l12 155l-12 58l12 186l-12 43l12 215q8 88 45 187q-35 90 -57 186q14 98 112 156l201 14q78 -57 100 -170l-14 -203l-29 -127l43 -14l15 14q101 28 215 43q43 -10 114 -14l15 86q-23 100 -29 201l-14 129l43 26l213 43q104 -16 172 -98l-29 -215l15 -444l-15 -43 l15 -187l-15 -43l15 -172q-27 -88 -130 -141q-94 6 -213 28q-57 90 -57 213l14 201l58 115l-58 -14l-186 -15l-43 15q-102 -10 -158 -101l43 -344l-57 -70l-215 -28q-95 28 -141 129zM203 391l12 -98l57 12q-18 47 -69 86zM231 692q20 -12 56 -14l71 86q-23 51 -57 100 l14 -129zM272 420q6 -20 29 -29q-4 19 -29 29zM401 649q4 -18 29 -28q-6 14 -29 28zM487 778l15 -28v28h-15zM516 721q6 -20 29 -29q-9 19 -29 29zM817 807q8 -59 41 -115q43 61 45 129l-57 -28zM918 563q6 -14 26 -28q-3 20 -26 28zM932 362h98q-35 41 -72 58zM932 1221 q10 -16 43 -27zM958 1008q45 10 60 57zM1004 850q23 -33 55 -43zM1047 535q12 -20 40 -29q-11 21 -40 29zM1047 1108l12 -57l14 57h-26z" />
<glyph unicode="I" horiz-adv-x="595" d="M82 367q23 47 29 118l14 205l-14 191l14 43l-31 366l17 43l190 60q98 -28 191 -74l14 -219l-31 -133l31 -58l-31 -395l31 -88l-14 -102v-29h14l-14 -16l28 -160l-28 -45q-78 -51 -191 -58q-100 20 -190 72l-17 133l17 103zM242 221l45 -14l14 72l-45 16zM242 500 q25 -31 59 -31zM270 1114q10 -25 45 -29q-10 19 -45 29zM301 557l14 -29v29h-14zM301 1231l29 -43l14 43h-43zM315 1174l15 -46v46h-15z" />
<glyph unicode="J" horiz-adv-x="800" d="M68 303l14 43l59 60h176l15 88l-31 395l16 88l-28 190l12 43q6 84 76 176l219 -14q86 -51 117 -162l-15 -233l15 -205l-15 -45l15 -145l-31 -60l16 -264l-102 -174q-98 -39 -219 -59l-164 -15l-57 15q-74 68 -74 176zM360 274q16 -49 60 -88q-21 59 -60 88zM434 772 l74 29q-6 31 -31 45zM449 274l104 -16l12 74l-12 14q-79 -6 -104 -72zM477 1020q41 -57 105 -102q-39 53 -105 102zM522 684q6 -31 31 -45q-6 31 -31 45zM537 537q0 -37 28 -72q1 37 -28 72z" />
<glyph unicode="K" horiz-adv-x="1370" d="M86 203l12 26l17 146l-17 43l-12 276l12 260l-12 189l12 43l-12 117l72 71l245 -14q59 -68 103 -160l-45 -231v-86q49 16 74 55l231 319q88 61 188 89l217 14q100 -12 144 -117l-144 -115l-131 -145l-174 -100q35 -63 103 -131q41 -109 86 -189q55 -66 88 -145l186 -260 l-29 -72q-102 -41 -231 -43q-102 2 -203 72l-100 159l-117 304q-43 -10 -71 -43l-117 -146l57 -186q-45 -90 -115 -160l-57 -14l-145 14l-103 57zM229 360q40 31 43 86zM244 549l116 -72q-44 39 -116 72zM258 838q12 -31 43 -43q-12 28 -43 43zM272 649l43 -26 q-10 16 -43 26zM287 1186q37 -49 88 -74q-39 41 -88 74zM360 623l43 -31q25 33 29 88zM375 811q0 -37 28 -59q1 34 -28 59zM492 737q20 -33 71 -43q-24 31 -71 43zM649 795l15 -29v29h-15zM680 752l115 -86q-17 86 -115 86zM852 446q74 -45 160 -71q-74 44 -160 71z M866 1112l43 -43l15 74v28h-15zM1112 258l14 -29v29h-14z" />
<glyph unicode="L" horiz-adv-x="1058" d="M68 1225q47 98 159 157q121 -2 262 -71l15 -131l-15 -146l15 -114l-15 -43v-60l-30 -43l30 -248l-16 -114l145 -15l146 43l102 -28q78 -57 101 -174q6 -39 28 -88l-86 -115l-247 -15l-44 29l-448 -29l-43 58l-45 131l14 131v186l15 45l-15 58v551zM199 629 q37 -53 100 -103q-34 64 -100 103zM227 1108l43 29q-4 18 -28 28zM287 1065l26 -43q-3 29 -26 43zM330 223q12 -31 43 -45q-14 35 -43 45zM690 252q37 -33 88 -43z" />
<glyph unicode="M" horiz-adv-x="1587" d="M86 659l41 146l-41 160l12 186l-12 43l29 117l114 71q84 -20 174 -28l158 -15q59 -37 103 -102l43 -315l43 -160l14 -189q-2 -80 -29 -174q16 -31 43 -43l45 58l15 57l-29 14l14 31l29 129l-14 88l28 58l29 174q2 68 29 145l28 158q51 45 131 71l189 15l172 -29 q31 -77 43 -160v-389l-14 -131l14 -43v-131l14 -29l-14 -14l14 -143l-14 -189q-59 -41 -129 -71q-74 2 -160 28q-45 45 -72 117l58 852q-35 -47 -58 -117l-71 -477q-18 -57 -60 -143l17 -131l-17 -43q-57 -43 -114 -72h-43v-14l-131 14q-51 39 -101 100l-14 189l-74 317 q-23 59 -29 146l-28 174v71l-43 -71l28 -160l-14 -131l14 -43l-14 -189l72 -288q-37 -55 -101 -101l-131 -14l-43 14q-68 23 -131 74v201l29 174zM229 471l15 -43l43 43h-58zM244 1036l71 -14q0 37 -28 72q-29 -23 -43 -58zM258 674l43 45l31 72l-60 -15l-14 15l14 -72z M301 1194l14 -29v29h-14zM332 1008l12 -29v29h-12zM332 1110h43v41h-17zM389 1194l29 -29q-6 15 -29 29zM1272 862q35 37 43 88zM1298 1065l17 -43v43h-17z" />
<glyph unicode="N" horiz-adv-x="1345" d="M74 1255q55 90 159 131l279 -28l319 -570l58 -159v88l-43 465l14 45q2 119 131 143l160 16l57 -28q43 -119 45 -262l-14 -160l14 -45v-29h15l-15 -14l-28 -205v-45h14l-14 -43l28 -100l-14 -45l14 -277l-28 -43l-219 -74q-106 25 -203 103q-55 102 -88 219 q-51 66 -117 174l-102 205l59 203l14 88h-88l60 -45l-74 -189l-29 -43l43 -190l31 -437l-74 -57l-248 -31q-66 72 -88 191l17 160l-17 102l17 129l-31 264l14 86l17 45q-8 102 -45 262zM219 512l60 -43l14 43h-74zM233 1051l46 -29q-15 19 -46 29zM279 774q23 -31 57 -43z M307 352q18 -37 58 -45zM307 1210q51 -86 146 -159q-19 120 -146 159zM336 598l14 -27v27h-14zM365 1036l16 -28v28h-16zM438 936h15l43 43h-58v-43zM684 629q41 -39 119 -88l12 57l-12 31h-119zM860 381l88 45l-59 12zM874 586q18 10 29 43zM889 352q12 -35 59 -57 q-22 30 -59 57zM963 1051l28 16l15 -16l14 59l-43 12zM977 817l29 -57q-6 34 -29 57zM991 207q49 6 74 43q-40 -12 -74 -43zM1020 686q33 -25 74 -29zM1108 891q2 -18 29 -29l14 15z" />
<glyph unicode="O" horiz-adv-x="1460" d="M90 553l14 264q12 115 70 250l168 180l209 125h221l98 -26q104 -23 236 -99q92 -63 168 -180l84 -238q-23 -76 -29 -151l14 -55q-20 -143 -69 -279l-168 -180q-78 -53 -209 -125l-305 -14q-115 35 -238 110q-80 61 -180 154zM229 956q6 -27 29 -43l14 43h-43zM258 580 l27 14v29h-13zM258 774l41 -26l29 14q-8 47 -43 84zM299 399l43 41l-29 15zM383 539l14 -29v29h-14zM383 1024q6 -27 29 -53l26 53h-55zM426 1151q23 -23 55 -29zM467 707q6 -102 70 -209q83 -80 208 -99q98 35 166 125q29 86 41 238q-10 94 -67 180q-92 51 -209 82 l-182 -137zM467 1053q4 -20 27 -29q-4 21 -27 29zM592 190l41 -14l29 29l-41 55zM758 150l43 14l55 26q-6 45 -43 70q-33 -23 -55 -70v-40zM938 1163q29 -100 139 -125zM1036 498q4 -18 29 -29q-4 13 -29 29zM1065 580q15 -52 55 -111l-14 111l84 57h-55zM1094 774 q2 -16 26 -26q-1 18 -26 26zM1149 817q4 -20 27 -29l14 15z" />
<glyph unicode="P" horiz-adv-x="1329" d="M86 113l14 127v215l-14 41l14 57v141l15 43q-10 43 -15 115v285l-14 43l14 129l86 57q101 -3 228 -31h43v15h342l241 -70q84 -57 170 -170l29 -287q-29 -92 -100 -227q-88 -80 -199 -158l-285 -12l-129 29l-43 -144l43 -71q-18 -86 -57 -170l-127 -58l-141 15l-101 43z M256 596q6 -27 29 -43zM270 311q41 59 43 144q-37 -62 -43 -144zM270 766l29 -41q29 -57 86 -115l-29 127l15 74l-43 27zM270 1137l15 -27v27h-15zM299 1067l72 -16l14 59l-14 12zM313 553q4 -18 29 -29q-4 19 -29 29zM442 539l58 43l-43 28zM469 795l31 -41l69 -17l29 17 h29l43 12l114 14q37 86 56 187l-56 26l-301 31zM541 1165q41 0 57 29zM868 1137q20 -35 58 -58q-11 40 -58 58zM883 694q6 -41 43 -69q-8 38 -43 69zM940 754q53 6 100 41l-28 -15l-58 15zM983 866l41 -14l57 43l-26 57q-10 61 -58 127q0 -70 27 -141z" />
<glyph unicode="Q" horiz-adv-x="1452" d="M84 770q6 82 27 154l57 125l84 100q35 45 96 84l98 84q78 14 140 41l309 -41l139 -43l197 -168l96 -266l14 -168l-26 -166l-84 -197l55 -14l125 -70l-27 -153l-84 -99l-112 -14l-29 29l-180 110l-41 -41l-324 -43l-153 29l-113 70q-51 39 -110 69l-70 113l-57 127z M238 686l41 -55l14 69l-29 15zM264 547q10 -35 43 -41q-8 27 -43 41zM279 924q49 -41 83 -84q9 74 44 153l-58 15zM293 406l84 -27l-55 84zM362 281q4 -8 29 -27q-2 17 -29 27zM432 631l14 -29q31 -96 127 -180q90 -51 181 -84l168 139l16 223l12 41q-41 119 -96 211 q-92 33 -213 56q-96 -57 -152 -168zM545 281q2 -16 28 -27q-1 17 -28 27zM725 1190q6 -55 43 -98q0 55 -43 98zM838 1176q20 -20 57 -27zM881 240l14 -58l84 58h-98zM991 365l15 -43v43h-15zM1020 1036q20 -66 70 -112l28 57l-28 55h-70zM1063 266q8 -72 84 -96 q-29 49 -84 96zM1090 477q18 -51 57 -84l27 70zM1174 506q4 -18 28 -29q-3 19 -28 29zM1174 811l14 -27v27h-14z" />
<glyph unicode="R" horiz-adv-x="1359" d="M88 444l14 43l17 179v221l-17 45l17 133l-17 131l31 45l-31 119l45 29l207 -15l105 15l28 -15l45 -14l148 14l45 -14l190 14l164 -74l117 -88q33 -74 59 -161l17 -150l-76 -207q-49 -41 -133 -88l-29 -45l148 -207l73 -145q18 -41 29 -119l-43 -29l-178 -16 q-74 2 -176 31l-105 133l-73 133q-16 70 -60 162l-88 14l-29 -14q-10 -2 -28 -31l12 -176l-12 -45l28 -119q-43 -55 -118 -102l-176 -15q-80 47 -136 103l17 133l-17 45zM238 1153h102l-74 59zM266 799q16 -37 45 -60q-6 37 -45 60zM281 385l14 -31v31h-14zM281 414l30 16 l-30 14v-30zM281 989q20 -35 73 -57q-20 39 -73 57zM326 504q29 -29 59 -31zM326 606q39 18 116 43l-71 45q-43 -35 -45 -88zM459 946l45 -104q12 -28 43 -43l235 28l105 45q-18 78 -76 148q-119 47 -295 59q-24 -72 -57 -133zM459 1270q6 -20 28 -29q-1 19 -28 29zM901 711 l74 -45q-25 33 -74 45zM915 1153l17 -74l12 60zM989 887l74 -88l31 147h-60zM989 1051h31v28h-16z" />
<glyph unicode="S" horiz-adv-x="1288" d="M33 291q41 84 141 127q61 61 170 71q57 -43 156 -100l69 -27l156 15q49 14 86 41q0 46 -43 86l-199 14l-41 14l-213 27l-141 129q-49 96 -72 199l29 211l115 141q90 61 182 100l199 58l213 -58q76 -25 198 -86q82 -59 142 -127q-33 -86 -99 -170q-92 -35 -198 -43 l-170 101l-158 14l-55 -29q14 -86 112 -112l228 -43q96 -18 184 -58q80 -55 141 -127q41 -106 43 -227l-71 -199l-142 -127q-104 -41 -213 -57l-213 -41q-106 4 -225 41q-86 33 -170 101q-67 55 -141 141zM287 291l14 -41q31 20 57 55l-57 14zM287 772h57l41 127l-27 43 q-51 -78 -71 -170zM330 1069l84 -12l-29 55zM373 1198q4 -20 26 -29l15 15zM399 276l15 -26v26h-15zM428 1227q4 -18 29 -29q-4 19 -29 29zM471 178q4 -18 29 -28l69 28h-98zM569 1141q39 14 43 57zM586 729l55 -12l14 41l-43 14zM641 221l14 -28v28h-14zM670 178 q4 -12 28 -28q-3 18 -28 28zM754 1198l43 -113l100 27q-63 55 -143 86zM797 659q12 -61 71 -112l84 -15l15 27l-29 14l-41 43l-14 -57q-47 41 -86 100zM840 291q0 -47 43 -84q-10 45 -43 84zM883 334q6 -29 26 -43zM926 432q6 -14 26 -26l15 12zM981 674q6 -41 43 -72 q-8 37 -43 72z" />
<glyph unicode="T" horiz-adv-x="1173" d="M57 1192q37 123 162 192q113 -20 266 -30l60 14l102 -29l45 15l326 14l45 -14l45 -88l12 -60l-28 -162l-74 -30l-250 45l12 -221l-12 -45l12 -324l-12 -164l12 -59v-103q-77 -108 -221 -147q-113 20 -192 57l-15 60l15 30l16 250l-16 207l30 45l-14 43l-31 133l60 150 q-10 29 -45 28l-207 -45q-87 93 -103 238zM236 1161l59 17q-4 12 -31 28zM457 1161q4 -18 28 -28q-5 14 -28 28zM514 1014q6 -28 31 -43zM514 1192q10 -37 45 -59q-12 32 -45 59zM530 410l29 -17v45h-14zM530 616l45 15l27 133l-27 45zM545 291q39 10 45 45zM545 852 q29 47 30 102q-28 -43 -30 -102zM559 481l59 17l-28 14zM647 1073q10 -18 45 -29z" />
<glyph unicode="U" horiz-adv-x="1304" d="M98 668v245l15 158q-14 94 -15 232l144 86q92 -12 202 -43l72 -58l-29 -520l15 -229q18 -78 57 -146l146 -28l43 16q51 68 71 158l-14 217l14 157l-14 58l14 186l-28 103l14 28l29 43l174 58q92 -8 200 -43l17 -58l-17 -160l-43 -43q18 -41 29 -114l-14 -215l28 -146 l-14 -57q-2 -96 -29 -215q-37 -72 -86 -131l-131 -117l-186 -55l-72 14l-57 -31l-45 17l-201 26l-131 115q-51 45 -115 131zM242 928l45 -29l28 72l-45 43zM287 610l43 -14v57l-15 15zM315 524q6 -14 29 -28q-4 18 -29 28zM358 410q2 -18 29 -29q-6 15 -29 29zM401 350 l15 -43v43h-15zM545 221q6 -20 28 -28q-3 18 -28 28zM965 1057l14 -43v43h-14zM979 625l12 -43v43h-12zM979 639q18 4 29 29l57 28l-57 88zM1022 1102q8 -23 29 -31q-6 17 -29 31z" />
<glyph unicode="V" horiz-adv-x="1077" d="M-63 1288l45 31l174 57q94 -16 188 -57l145 -494q8 -96 43 -188q16 -84 74 -148l-31 103l17 45l29 203l102 348q10 88 86 145l88 43l57 -43q80 27 174 29l43 -86l-43 -59q-23 -59 -43 -175l-174 -493q-29 -66 -45 -146l-43 -145q-23 -90 -57 -174q-61 -41 -145 -57 l-220 -17q-47 49 -86 131l-116 348q-41 82 -60 177q-25 66 -71 145q-12 88 -43 188zM242 680l45 -31q-12 21 -45 31zM299 649q41 -33 117 -57q-47 34 -117 57zM446 461l15 -43v43h-15zM575 213l31 -55l43 55h-74zM664 432q20 -25 59 -29zM766 694l14 -45l15 31zM823 985h74 v72l-14 14q-40 -33 -60 -86zM938 1128h31v31h-15z" />
<glyph unicode="W" horiz-adv-x="1538" d="M-86 1284l100 84h199q63 -33 100 -84q6 -66 29 -141v-187l70 -297l-27 -129q49 16 98 58l-28 98l100 469l14 158q45 31 113 41l141 -13q63 -6 115 -43q27 -53 43 -129l98 -553l-28 -28q20 -47 71 -99q31 47 43 113q-27 57 -28 127l57 512q23 59 70 113l186 14l127 -55 l43 -72l-29 -57l-198 -738l-58 -129q12 -63 15 -112l-15 -43l-71 -127h-185q-63 12 -127 43q-35 51 -57 127l-98 469l-17 225l-41 -55l-14 -86l14 -29v-43l-100 -469q-8 -57 -41 -139l-201 -58l-112 15q-47 53 -72 127l-55 112q-22 74 -31 172l-55 127l14 43l-72 242 q-20 63 -26 141zM141 887q4 -43 29 -86l14 86h-43zM158 1100h41l-29 43zM227 743l15 -26v26h-15zM328 502l26 14l-26 14v-28zM369 418q27 -53 100 -86q-30 53 -100 86zM440 461q4 -12 29 -29q-4 19 -29 29zM682 1028l72 -43l14 72l86 -43l27 55q-71 28 -142 86zM924 573 l28 -14v43h-14zM1051 217l14 -27q35 27 57 58l-43 26zM1079 432q4 -12 29 -29q-4 19 -29 29zM1292 743q0 -29 29 -57q0 32 -29 57zM1335 899l15 -27v27h-15zM1376 1014l17 -43v43h-17z" />
<glyph unicode="X" horiz-adv-x="1208" d="M-55 156q57 90 114 157l215 318q49 66 72 157q-70 66 -129 158l-98 160l-129 141q35 84 112 131l244 -28q92 -35 160 -131l72 -187l71 -57l29 115l72 188q66 61 174 72l198 -17l45 -12l43 -74l-186 -243q-49 -78 -117 -158l-55 -117q12 -31 43 -55l115 -144l100 -188 l129 -129q25 -47 43 -115l-57 -57l-103 -29l-43 15h-84q-98 31 -188 100l-100 158q-31 98 -86 200l-86 -129l-86 -186q-59 -80 -130 -143l-231 14q-100 19 -143 115zM477 588l15 -43l14 43h-29zM477 817q6 -27 29 -43zM492 760q6 -14 28 -31l15 16zM520 631q27 -37 72 -58 q-23 35 -72 58zM535 903q20 -66 71 -115q-16 68 -71 115zM649 688q6 -39 29 -72q0 37 -29 72zM664 932l28 -43q-5 29 -28 43zM678 573l29 -16l-15 59zM879 1090l16 -27v27h-16zM907 313q6 -78 88 -100q-31 53 -88 100z" />
<glyph unicode="Y" d="M-57 1245q20 72 57 133l176 -28l119 14l43 -14l102 -105l72 -115l59 -147q49 6 74 43q23 66 74 119q18 70 57 131l133 74h205l119 -88q-20 -55 -76 -117l-321 -455q-37 -49 -43 -117l-17 -133l17 -43v-190q-4 -74 -29 -133q-72 -31 -164 -43l-117 -15l-43 29 q-33 57 -45 117l-12 381l12 88l-28 59l-103 103zM264 1188l15 -31v31h-15zM279 1145l45 -31q-12 21 -45 31zM352 895l88 -14l-14 88zM483 750q29 -35 74 -60q-25 40 -74 60zM500 881l12 -29v29h-12zM528 485q29 35 29 72zM557 367q6 -35 43 -58q-6 38 -43 58zM645 676 q37 31 43 88zM776 954l17 -88v72zM864 1085q6 -41 45 -73q-10 28 -45 73zM895 1100h29v30h-15z" />
<glyph unicode="Z" horiz-adv-x="1300" d="M76 272l28 101l514 530l158 101l86 -46q-12 37 -43 72l-442 -43q-96 4 -203 31l-41 199l100 157l357 -57l43 14l272 -14l58 -29l143 29q92 -29 98 -143q-6 -113 -26 -216q-55 -53 -146 -112l-241 -287q-65 -52 -129 -129q-41 -20 -72 -57l100 -15l330 29l115 -29l86 -43 q-6 -47 -29 -100q-6 -98 -43 -186l-215 14l-86 -14l-29 14h-330l-43 -14l-57 28l-156 -14l-145 115zM289 287q10 -18 45 -29zM346 215q23 -29 57 -29zM360 301l72 -29l74 144q-14 59 -74 98l-14 -156q-35 -16 -58 -57zM461 1147q4 -20 28 -31q-3 21 -28 31zM532 344l15 -29 v29h-15zM561 686q6 -18 29 -27q-2 17 -29 27zM690 760q6 -27 29 -43l14 43h-43zM762 803q2 -27 29 -43q-6 27 -29 43zM805 1147l14 -31l43 14zM848 944l43 -41q-8 29 -43 41zM977 1004q2 -18 29 -29q-4 19 -29 29z" />
<glyph unicode="[" horiz-adv-x="567" />
<glyph unicode="\" horiz-adv-x="567" />
<glyph unicode="]" horiz-adv-x="567" />
<glyph unicode="^" horiz-adv-x="960" />
<glyph unicode="_" />
<glyph unicode="`" horiz-adv-x="505" d="M61 1733q68 61 132 67q66 6 100 -31l6 -24l12 -33l82 -151q29 -59 37 -127l-68 -74l-32 -12l-23 8q-55 41 -117 102l-102 119l-4 22q-29 52 -23 134z" />
<glyph unicode="a" horiz-adv-x="1128" d="M-72 123q37 115 115 244l14 145l101 272l57 113q14 78 43 145q20 57 57 129q37 119 158 201l172 -29q61 -12 129 -43q39 -45 74 -114l29 -144l301 -790q34 -58 43 -129l-115 -72l-158 -28q-59 18 -114 57q-41 82 -60 158l-129 -15l-172 15q-52 -22 -86 -86l-72 -115 l-157 -29l-158 15zM172 166l14 72v28h-14v-100zM272 713q14 -68 72 -115q-21 56 -72 115zM330 770h28l-14 29zM358 842l43 -15l58 158l-29 43q-45 -88 -72 -186zM401 438l15 -43l14 43h-29zM444 1057l29 -15l57 29q-23 39 -71 72zM473 567q59 -23 129 -28l74 16l-43 170 q-23 98 -60 203q-25 -125 -71 -246zM487 1229l43 -29q-12 23 -43 29zM618 1028q6 -35 44 -57q-13 32 -44 57zM690 928q27 35 29 71zM690 1100l15 -86l28 86l-28 28zM719 395h55l60 -86q27 39 28 86q-29 33 -88 86q-32 -27 -55 -86zM817 670q14 -63 88 -115zM905 367h43 l-14 59zM920 252l71 -29l15 115l-43 29q-12 -56 -43 -115z" />
<glyph unicode="b" horiz-adv-x="1333" d="M78 1276l74 74l247 14l60 -14q115 2 293 28q127 -20 278 -73q90 -90 162 -205l14 -162q-10 -20 -14 -57l-43 -45q-70 -55 -148 -103l89 -14q100 -80 147 -219l12 -133l-12 -43l-61 -103q-78 -90 -203 -162q-137 -27 -309 -28l-220 -15l-45 15h-43l-159 -15l-45 15 q-23 31 -43 102l-17 322l17 235l-17 60l17 319zM254 338l57 -131l45 14q-14 84 -45 162zM254 543l14 -43l15 28zM254 807q18 -27 57 -43l45 72l-45 16zM254 1219q2 -20 29 -31q-2 19 -29 31zM268 705l15 -29v29h-15zM283 997l73 -28q-4 39 -28 73zM311 588q27 -33 74 -45z M385 221q2 -18 31 -28q-2 18 -31 28zM416 264q49 -55 100 -88q-37 49 -100 88zM444 793l43 -43q-9 31 -43 43zM459 543l28 -176l88 -15q117 22 265 74q-25 109 -131 147zM459 1012l28 -146l117 -30l45 30q96 25 191 103l-191 57zM487 1233l105 -45q-42 29 -105 45zM737 1202 q16 -47 60 -72q-11 52 -60 72zM811 750l14 -45l15 45h-29zM825 281q6 -39 43 -60q-6 40 -43 60zM854 778q2 -18 31 -28l14 14zM899 881l29 -15v43h-15zM899 1145q14 -53 74 -88q-21 51 -74 88zM913 588l29 -45q-6 31 -29 45zM985 338q31 35 31 74zM1030 440q6 -16 31 -28 q-2 18 -31 28z" />
<glyph unicode="c" horiz-adv-x="1300" d="M90 608l14 58l-14 143l43 182l72 158l268 182l184 43l197 -28l158 -70l127 -115l84 -139l-99 -129q-86 -37 -170 -57q-49 39 -112 112q-84 35 -170 58l-144 -84q-35 -76 -55 -170q2 -86 29 -199q27 -72 69 -141q74 -37 156 -43q70 27 158 71q37 61 112 113l142 -84 q51 -53 69 -143l-98 -127q-55 -49 -113 -113q-84 -35 -170 -57l-213 -15l-184 43q-72 43 -141 101l-113 112l-72 156zM248 752q12 -57 55 -113q-6 60 -55 113zM289 608l14 -26v26h-14zM303 821q39 23 57 72q-34 -23 -57 -72zM344 1006h43v16l43 111h-55zM375 383 q29 -121 153 -127zM387 977l14 -29v29h-14zM586 1161l57 -28l170 43l-43 43zM614 141l29 58v28h-14zM756 227q12 -31 43 -43q-12 28 -43 43zM885 1063l69 14l27 56h-84zM1012 342l12 -43l14 43h-26z" />
<glyph unicode="d" horiz-adv-x="1396" d="M94 594l17 131l-17 121l17 147l-17 164q12 121 76 238l651 -15l240 -104l162 -178q58 -120 73 -283l-14 -74l31 -59l-31 -133q-27 -119 -88 -252q-66 -102 -178 -164q-113 -55 -268 -88l-238 -14l-102 -31l-164 14l-45 17q-84 84 -88 221l14 209v43zM258 385l76 -29 q-6 63 -45 117zM258 713q18 -59 76 -105q-25 58 -76 105zM272 1083q14 -96 62 -192l28 74q-12 89 -90 118zM272 1098q20 2 31 28l59 31l-59 45zM289 283q23 -84 119 -90q-60 51 -119 90zM334 758q27 -31 57 -33zM362 311l29 -14v45h-14zM377 1112h45v45h-14zM436 1231 l15 -29v29h-15zM510 385l90 14h148l73 62q45 72 76 162l-16 237q-55 74 -148 133l-223 45v-653zM524 238l17 -45l45 45h-62zM719 207q41 6 45 45zM748 1202q29 -39 73 -59q-24 39 -73 59zM911 1067q6 -16 29 -29q-2 19 -29 29zM926 326q18 -23 59 -29zM971 385q6 -29 28 -43 q31 59 31 131zM985 979l59 -45l-28 121zM999 549l31 -45q-6 27 -31 45zM1073 770q2 -29 31 -57l14 45zM1073 950l45 -45q-10 33 -45 45z" />
<glyph unicode="e" horiz-adv-x="1214" d="M86 672l29 143l-29 146l29 45l-15 114l15 31v86q23 76 73 145l232 -28l231 14l189 -14l145 28l43 -28q31 -95 43 -203q-14 -80 -100 -131l-451 12l-55 -43l43 -115l217 29l57 -14l160 14q83 -22 117 -117q-8 -96 -60 -202l-202 -15l-232 15q-78 -25 -116 -115 q68 -61 159 -88q106 27 232 29h145l31 14l12 -14h43q59 -59 59 -160v-131l-59 -72l-491 14l-43 -28l-131 14q-66 -8 -146 -45q-78 35 -160 102v508zM231 612q14 -49 58 -88q-13 55 -58 88zM231 874l15 -73l14 -29l14 102q-4 18 -28 29zM246 424l43 -29q-10 19 -43 29z M246 1063q6 -27 28 -43zM260 1151l14 -31v31h-14zM317 352q2 -102 103 -145q-27 77 -103 145zM362 772q6 -27 29 -43zM420 684l88 16l-43 43zM651 221l45 15q-4 33 -28 57z" />
<glyph unicode="f" horiz-adv-x="1212" d="M80 215l43 160l-29 131l15 43l-15 203l15 188l-29 317l29 43q59 47 131 89l174 -46l172 29l174 -43l174 31q86 -6 174 -43l29 -189q-37 -63 -103 -116l-157 -15l-203 15l-117 28l-43 -14l-29 -115l15 -45l131 -14l43 14h203q76 0 157 -28l31 -129l-14 -45 q-8 -63 -45 -144l-146 -14l-43 14l-143 29l-43 -14l-117 14l-29 -318l15 -45q-2 -72 -43 -143l-291 -29l-29 43q-39 70 -57 158zM268 260l15 -29l28 15v-31l29 88l-43 29zM268 420q37 18 43 55zM268 535l15 -15l43 72l-43 14zM268 1143l29 -15l14 72l-28 29zM297 692l29 -12 l88 12l-60 131zM297 1012l57 14q-6 35 -28 57zM385 1214q18 -51 72 -71zM831 692q29 16 29 45zM846 1186q4 -20 31 -31q-3 22 -31 31zM905 1143l15 -43l14 28z" />
<glyph unicode="g" horiz-adv-x="1388" d="M78 582q12 108 43 215l-29 114l29 115l131 158l156 131l217 71l215 -16l243 -100l158 -144q39 -51 59 -114l-59 -58l-201 -86l-172 115l-114 29l-129 -15q-76 -70 -129 -157l-29 -144l12 -43v-43q2 -88 74 -174q96 -37 215 -57q90 37 186 100q-100 2 -229 43 q-23 45 -43 117l14 129l58 72l358 -29l100 14l43 -14l45 -86l-28 -446l12 -201l-43 -15l-29 -28q-90 12 -186 43l-72 57q-29 -39 -86 -72q-104 -34 -215 -43q-117 6 -245 58l-156 115l-131 172zM236 768q2 -18 28 -31l17 17zM252 926q25 -57 70 -115q-9 64 -70 115zM307 494 h29v16l57 43l-43 29zM307 983q4 -12 29 -29l14 15zM381 322q33 -76 86 -144l12 86zM381 451l12 -43v43h-12zM381 1040l43 29q-2 18 -31 29zM768 221q2 -18 29 -28q-2 12 -29 28zM825 1126q31 23 43 58q-29 -23 -43 -58zM911 322q12 -53 58 -86q-17 47 -58 86zM983 436 l43 -28q-10 18 -43 28zM1012 522q12 -35 45 -71q37 41 41 114zM1026 653l14 -43v43h-14zM1098 336l14 -43l14 43h-28z" />
<glyph unicode="h" horiz-adv-x="1316" d="M84 266l29 43l-17 43v230l17 28l-17 215l17 144l-17 55l-12 160l29 57q31 63 100 127l227 -12q43 -82 58 -172l-13 -230l-59 -86l43 -43q68 49 160 86l184 -14l14 -43l29 57l-14 158q-23 102 -29 201q55 74 160 86l155 12l43 -12q45 -74 58 -172l-29 -373l14 -43l-14 -57 l29 -488q-10 -88 -58 -172l-157 -14l-58 14q-95 25 -129 129l15 244q6 63 28 143q-6 27 -28 43q-96 -35 -201 -43l-115 15l-28 -15l-29 -57l29 -229q-10 -111 -41 -215q-100 -37 -232 -43q-74 46 -129 129q-8 48 -12 114zM213 696l55 15l31 114l-31 43q-28 -109 -55 -172z M225 481l43 -14l74 43l-57 115l-17 -101q18 -2 31 -28zM285 1024q37 20 43 74q-29 -27 -43 -74zM397 668l43 -29l17 86l-31 14zM657 754l13 -29v29h-13zM856 854q3 -68 43 -129q-4 74 -43 129zM956 295q37 -31 86 -43q-37 31 -86 43zM973 711q6 -41 55 -58q-12 40 -55 58z M1014 954q6 -41 28 -71l15 57zM1028 496q4 -18 29 -29l14 14z" />
<glyph unicode="i" horiz-adv-x="575" d="M90 250l14 55l17 172l-17 203l17 215q-16 109 -17 227l-14 158l31 43l184 59l189 -71l-17 -201l-12 -43l29 -117l-17 -43v-184h17l-17 -14l-12 -131l12 -41v-60l17 -112l-17 -29v-43l17 -160l-17 -55q-88 -41 -184 -58q-102 27 -189 70v160h-14zM219 895q39 -39 117 -43z M262 250l14 -31l29 -29q0 70 -29 146zM262 537l31 69l-31 31v-100zM293 694l12 -45v45h-12zM293 1210q6 -31 29 -45z" />
<glyph unicode="j" horiz-adv-x="788" d="M57 256q35 102 146 133q100 31 102 146l17 45l-31 116l14 60l17 233l-31 148l14 57l-14 119l74 73l116 -30l103 30q90 -57 118 -176l-16 -747l16 -60l-16 -147l-14 -43q-59 -84 -131 -145q-111 -43 -236 -45l-72 -29q-59 23 -118 57q-58 84 -58 205zM233 227 q14 -31 43 -45zM365 301q23 -53 88 -88q-20 53 -88 88zM393 463q41 -45 60 -105q23 27 28 60v162h-14zM467 1034q33 -57 102 -88q-36 45 -102 88zM498 725l14 -43v43h-14z" />
<glyph unicode="k" horiz-adv-x="1349" d="M84 362l12 44l17 116l-17 29l-12 362l12 248q2 90 45 203l232 -14q86 -45 131 -146l-43 -231q-18 -43 -60 -103l88 -14q59 82 132 145q27 76 88 175l129 131q76 27 176 43h217l43 -29l43 -74l-217 -203q-68 -65 -160 -116q-39 -63 -43 -160l117 -160l129 -131 q35 -94 88 -186q47 -61 100 -176q-68 -72 -174 -72l-188 -14l-43 14l-217 334l-74 188q-80 -47 -146 -116l-14 -58l29 -145v-29q-2 -90 -72 -174l-233 -14q-84 43 -103 145zM244 565l43 -28q16 -61 71 -88q-23 39 -43 116l43 43q-43 49 -102 74zM256 942q20 -25 59 -29z M256 1116q14 -47 59 -86q-14 51 -59 86zM272 346q2 -70 43 -143q-8 69 -43 143zM301 768l14 -43v43h-14zM489 668l15 -29v29h-15zM692 739q14 -37 45 -57q-6 30 -45 57zM866 522q10 -25 45 -28q-10 18 -45 28zM926 274l88 17l-17 26q-36 -12 -71 -43zM1026 1161 q4 -10 31 -28q-2 18 -31 28z" />
<glyph unicode="l" horiz-adv-x="1042" d="M70 514l28 131l-14 277l14 131l-14 102l-14 43q23 115 131 191q127 -12 262 -74l29 -43l-29 -219l29 -189l-29 -45l14 -422h15l-15 -43l60 29l217 43l45 -14q74 -2 159 -29l15 -291l-74 -57l-305 12q-137 -23 -291 -29h-160q-29 45 -45 103l-14 160l14 102zM229 588 q37 41 45 86zM244 1010l45 -15q-2 37 -29 72zM244 1169l45 -14v43h-15zM274 369q31 18 58 57l-43 31zM274 776q20 -10 58 -14l14 57l-14 31l-29 14zM303 1141q23 -37 74 -60zM317 238l43 -15l43 74l-71 12z" />
<glyph unicode="m" horiz-adv-x="1583" d="M74 1036l14 74l-14 117l14 43q37 51 88 100l174 -12l162 12l117 -72l100 -481l14 -160l29 -88l-29 -43l-14 -45l14 -12q37 6 60 29l43 143l14 119l-14 43l31 160q10 72 43 147l43 160l102 71l160 17l159 -17q63 -20 117 -71l-12 -176l12 -115l-28 -31l16 -567l12 -117 l-12 -45l12 -100l-12 -31q-47 -33 -133 -72l-146 15l-88 102l45 422q-8 80 -7.5 141.5t7.5 106.5l15 117l-74 14l14 -74q-6 -76 -28 -145l-86 -482q-6 -72 -45 -159l-132 -58q-63 12 -145 43q-55 49 -88 117l-14 162l-43 160l-15 143q-29 70 -30 133l-43 146v71 q-25 -16 -29 -43l29 -276l-15 -43l15 -103l-15 -28l15 -176l43 -160l-72 -117l-174 -14q-76 23 -148 57l-14 176l14 146l-14 43q10 45 14 116l-14 453zM233 322q20 -49 89 -89q-30 46 -89 89zM250 614h43l14 43l-43 15zM264 991q10 -18 43 -28l43 45l-43 86zM293 526 q12 -37 57 -57q-12 41 -57 57zM322 1196l14 -29v29h-14zM541 1065q4 -12 28 -29q-3 19 -28 29zM729 279q31 -33 74 -46q-33 34 -74 46zM817 395q6 -51 43 -88q-12 47 -43 88zM1079 1008q6 -29 29 -45zM1079 1122l29 -57q23 4 31 29l57 73h-57zM1284 381q14 -31 43 -31z M1284 1110l29 -16l-15 59zM1298 1008q16 -47 58 -74q-13 49 -58 74z" />
<glyph unicode="n" horiz-adv-x="1333" d="M74 1272q63 84 188 100l246 -14l289 -535q31 -90 129 -143l-58 174l-43 389q12 43 43 86l201 57q111 -10 174 -114l-14 -101l14 -45l-14 -866l14 -129l-72 -72l-159 -14l-58 14q-102 16 -174 101l-272 549q-37 63 -117 114l74 -186l43 -477q-39 -92 -146 -129l-114 -15 l-43 15l-60 28l-43 101q12 63 15 114l-15 277l15 115l-15 28v361q-5 94 -28 217zM248 983l100 29l-72 114l-28 -100v-43zM262 274l43 -28l43 28q-12 40 -43 74zM276 449l29 -15l14 72l-28 14zM319 1157l101 -31q-2 57 -29 74zM348 997q10 -18 43 -28zM434 1026q0 -27 31 -43 q-6 28 -31 43zM465 926l12 -29v29h-12zM465 1083q2 -16 27 -28q-4 20 -27 28zM522 926q20 -55 72 -115q-15 58 -72 115zM780 492l31 -15l14 43h-28zM825 391q41 -27 86 -72l-28 130zM926 535l43 -29l28 88q-4 18 -28 29zM983 246q0 -18 29 -29q29 57 28 131l29 86l-43 29 l-14 -129zM1026 911l14 -43v43h-14zM1057 1069q27 29 26 88zM1069 838l14 -58l17 58h-31z" />
<glyph unicode="o" horiz-adv-x="1417" d="M70 709l26 139q31 113 99 235q65 80 165 166q84 68 207 125q135 -6 307 -41q109 -27 236 -96l166 -168q23 -129 70 -264l-29 -291q-18 -114 -111 -221q-53 -94 -151 -180q-100 -51 -238 -99l-305 15q-90 39 -207 125q-86 76 -153 180q-41 90 -68 235zM221 668 q14 -51 70 -70q-21 45 -70 70zM262 737q2 -18 29 -28l14 84q-2 16 -29 26l15 -55q-15 -7 -29 -27zM305 430l27 -41l69 55q-12 31 -41 41q-18 -27 -55 -55zM305 930l27 14v29h-13zM401 973l41 26q-4 14 -26 29zM401 1124l15 -69l14 28zM442 682l84 -209q82 -53 195 -84 q106 49 180 96l41 183l-12 41q-15 108 -56 221q-88 51 -194 84q-86 -45 -168 -125zM485 223l97 -28q-6 55 -41 98zM541 1180q27 -49 82 -97q-2 72 -82 97zM651 1237h29v41h-14zM776 305l55 -67q-12 45 -55 67zM831 1194l15 -29v29h-15zM846 252q6 -27 28 -43zM956 1028 q10 -29 43 -29zM971 279q76 43 84 124q-59 -50 -84 -124zM983 1040h43v43h-14zM1040 834q12 -31 41 -41q31 31 56 81l-41 44zM1040 1139l15 -41v41h-15zM1151 653q4 -18 29 -28q-4 18 -29 28zM1165 528q16 -25 41 -26z" />
<glyph unicode="p" horiz-adv-x="1312" d="M94 451l15 43v84h-15q10 20 15 57l16 184l-16 43l-15 355q61 106 201 143l297 -29l129 15l141 -29q129 -16 254 -84q80 -92 115 -229l-14 -142l14 -43v-43l-29 -41q-49 -113 -127 -215q-100 -61 -241 -84l-129 -28l-142 28l-69 -14l26 -199q-16 -123 -127 -198l-155 -15 l-58 15l-43 26l-28 45v240zM238 266l14 -28v28h-14zM238 537l26 -43q-3 29 -26 43zM238 934q4 -20 26 -29q-3 17 -26 29zM264 422q2 -14 31 -29q-2 19 -31 29zM264 891q27 -29 74 -43q-25 29 -74 43zM281 1159q18 -47 69 -55q-22 32 -69 55zM307 1020l15 -31v31h-15z M338 336q16 -29 55 -41zM338 805q2 -35 41 -57q-10 30 -41 57zM350 494l43 -29l43 113l-43 28zM365 606l43 43l-29 15zM465 977l29 -43l-17 -43l17 -115q43 -35 112 -41l99 29l45 -16q43 37 84 86l14 100l-29 43l-299 55q-32 -26 -55 -55zM692 635q10 -51 41 -84 q-6 49 -41 84zM776 1159l43 -26l43 57q-6 14 -28 27zM920 735l98 -14l29 72l-15 26q-57 -31 -112 -84zM934 649l12 -28v28h-12zM946 1004l15 -27v27h-15zM946 1118l15 -28l43 14l-27 43zM977 848q12 -20 41 -29zM1004 934q37 15 43 55z" />
<glyph unicode="q" horiz-adv-x="1447" d="M86 594l14 43l-14 170l31 172l55 127l100 86q39 51 101 100l270 101l313 -43l129 -58q45 -35 101 -100l86 -100l55 -127l43 -344l-43 -144l-55 -98q35 -55 98 -86q39 -39 57 -115q-12 -68 -43 -141q-43 -49 -112 -86l-129 57l-101 84l-327 -84q-43 10 -115 15 q-65 12 -141 43l-129 69l-101 86q-41 59 -71 129zM287 477q35 -49 114 -84q-39 63 -57 158q-6 57 -57 113l14 -144zM301 750l43 57q-6 14 -29 29zM315 1049l29 -43l14 43h-43zM358 922l15 -43v43h-15zM416 307q6 -27 28 -43zM459 678q6 -109 86 -213q68 -80 184 -86 q109 18 184 115q31 111 43 256q-12 111 -84 215q-63 51 -172 84l-186 -127q-43 -101 -55 -244zM514 1178l14 -43v43h-14zM586 236q12 -39 43 -70q-2 45 -43 70zM801 193l12 -43v43h-12zM913 1163l101 -129q-29 72 -101 129zM1042 236l43 -27l43 41l-71 57zM1071 637 q25 -37 72 -59q-23 43 -72 59zM1100 991q39 -61 100 -112q-14 81 -100 112zM1128 750q39 31 58 71h-58v-71z" />
<glyph unicode="r" horiz-adv-x="1337" d="M82 219l14 428l-14 88l14 31v74l17 207q-23 78 -31 176q8 82 45 178l190 -31l91 16l28 -16h295l119 16l31 -16q80 -23 161 -57l134 -90l59 -162l14 -148l-59 -192q-49 -57 -119 -103l-59 -30q8 -37 45 -74q40 -65 73 -147l91 -105l43 -162q-74 -31 -179 -57l-133 14 l-43 -14q-68 39 -118 117l-60 147l-88 133q-55 53 -133 74l-57 -45l26 -86l17 -121l-29 -43q18 -41 29 -119l-29 -43q-72 -29 -178 -45l-148 45q-36 66 -59 162zM201 426l28 -43q-5 29 -28 43zM215 678q6 -20 29 -31q-2 15 -29 31zM244 897q2 -25 30 -43q-5 27 -30 43z M289 750l59 -29v59l-14 15zM391 692q2 -16 31 -30q-6 15 -31 30zM391 1223l17 -29v29h-17zM467 1001l12 -176l31 -45l252 45q49 33 102 88q-23 55 -57 105q-104 37 -283 57q-28 -27 -57 -74zM762 678q43 -53 102 -76q-49 49 -102 76zM864 588q2 -16 31 -31q-6 16 -31 31z M881 1223q6 -14 28 -29q-1 19 -28 29zM895 248h29v45h-15zM895 1106l74 29l-45 45zM952 721q2 -18 31 -29q-4 21 -31 29z" />
<glyph unicode="s" horiz-adv-x="1290" d="M31 330l69 57l170 98q86 -20 170 -69q104 -41 213 -58q100 27 185 84q-84 47 -199 72l-184 29l-41 -15l-170 70l-115 158l-29 225q25 74 86 182l142 127l184 86l156 -14l57 14h41l340 -170l72 -55l-29 -115q-66 -66 -156 -127q-90 10 -198 58q-98 33 -185 43 q-98 -12 -98 -115l240 -29l213 -55q84 -43 155 -113q53 -86 84 -184l-55 -227l-115 -156l-170 -96l-196 -31l-29 14l-98 -14l-43 31l-43 -17h-41q-94 20 -199 72l-141 127q-31 58 -43 113zM342 1065q25 -53 72 -113q-19 60 -72 113zM385 756l14 -31v31h-14zM440 1206l29 -43 q-6 27 -29 43zM498 698l71 15q-14 45 -57 69zM696 147l29 -16v72l-16 14zM709 739q28 -55 86 -98q-27 51 -86 98zM864 655l43 -28q-10 18 -43 28zM950 543l15 -29v29h-15z" />
<glyph unicode="t" horiz-adv-x="1155" d="M49 1210q31 125 176 176l131 -28l148 14l264 -14l57 14l205 -14q35 -35 60 -88l14 -103l-14 -43v-45l-74 -57q-98 25 -248 29l-16 -220l16 -45l-16 -247l16 -45l-16 -248l16 -60q-35 -104 -147 -159l-117 -17l-45 17h-43l-60 71l-14 60l14 145l-14 45l14 43l15 322 l-29 45l29 190l14 43q-12 28 -43 31q-74 -29 -176 -45l-103 45zM299 1153h29l14 43h-29zM547 186l74 15q-12 35 -60 59zM547 377l45 -29l29 74q-6 14 -29 29zM547 539h45l-17 59zM780 1210q6 -16 31 -28q-2 18 -31 28z" />
<glyph unicode="u" horiz-adv-x="1269" d="M74 553l28 100l-14 86l14 60l-14 157l14 58l-14 157q0 88 43 175l145 28l43 -14l130 14l28 -45l29 -143l-29 -58l-14 -417l14 -201q43 -66 101 -129l131 -14l57 43l57 172l-28 575l-15 43l15 14q20 86 71 146l187 43q98 -23 131 -129l28 -174q-27 -90 -28 -187l-17 -188 l17 -201l-31 -217l-100 -129l-144 -100l-186 -58l-145 29l-58 -14l-172 57q-70 51 -131 115l-115 131q-5 92 -28 215zM217 438l59 -14l-28 115zM260 1042q20 -33 74 -57q-19 41 -74 57zM477 264q18 -23 58 -28zM823 264q12 -31 43 -43q-9 28 -43 43zM924 481h28v29h-14z M967 1231q25 -29 57 -31zM981 625q8 -37 43 -72q-6 41 -43 72zM981 825q41 -33 86 -43zM981 897h29l14 45h-29zM981 1085h29v43h-15z" />
<glyph unicode="v" horiz-adv-x="1054" d="M-70 1274q39 61 103 117l219 -15q66 -41 119 -102l14 -176l57 -176q10 -74 45 -177l60 -247l43 73l45 379q23 84 57 162l31 176q51 51 131 88h219l74 -28q-6 -43 -31 -103l-57 -162l-31 -161q-20 -78 -57 -148l-43 -160l-74 -161l-88 -353q-63 -47 -162 -71l-205 -17 l-116 103q-6 86 -31 176l-102 307q-31 66 -58 164q-31 82 -45 176l-74 160zM150 1214q25 -31 73 -43zM180 1098l43 -29l29 14zM238 850q12 -39 45 -76q-6 47 -45 76zM283 702l14 -43l14 43h-28zM414 350l88 -131l57 14q-6 39 -29 89l-59 116q-39 -41 -57 -88zM559 424 q18 -47 76 -59q-25 36 -76 59z" />
<glyph unicode="w" horiz-adv-x="1531" d="M-70 1194q6 68 43 129l113 55l170 -12l72 -129q12 -68 43 -141l-15 -115l15 -27l43 -297q-12 -43 -43 -86q2 -12 26 -26l58 -31l43 43l-29 100l14 43l15 170l43 142l14 127l43 141q37 51 98 72l142 -15q57 -8 112 -43l43 -141l15 -141l41 -142l43 -313q12 -28 43 -55v69 l69 666q23 63 74 115l168 14q65 -12 141 -43l43 -86l-28 -27l-142 -596l-55 -127l-31 -141q-10 -84 -41 -156q-9 -68 -55 -129q-55 -23 -129 -26l-100 -15l-41 27q-53 29 -101 86l-12 156l-72 297l-14 170q-6 65 -43 141l-12 -98l12 -43l-41 -142l-14 -170l-43 -141 l-15 -170l-98 -86l-158 -27l-141 41l-98 271l-29 141q-31 74 -43 156zM201 813l28 -43q-5 27 -28 43zM270 375l101 -58l-58 84l-14 101q-27 -61 -29 -127zM397 317l17 -43v43h-17zM426 317l14 -28v28h-14zM455 332l14 -29v29h-14zM541 401h28v29h-14zM711 969l43 -15l69 113 l-43 72zM725 1210q6 -27 29 -43zM979 375l113 -29l28 55l-14 29h-84zM1135 260l43 -43l26 43l-33 29zM1333 870l29 70l-29 14v-84zM1348 1096q6 -41 26 -70q1 37 -26 70z" />
<glyph unicode="x" horiz-adv-x="1206" d="M-57 123q37 92 100 174l348 463l-145 129l-101 174l-131 143l-26 103l69 71l246 -28q96 -29 189 -86l86 -203q23 -43 73 -102l15 73l71 201q49 86 160 117l201 14l45 -14l71 -58q-10 -53 -43 -102q-63 -80 -102 -172l-143 -131q-47 -88 -72 -172l346 -463q55 -68 72 -174 l-29 -57h-131v-15l-43 15h-186l-131 217q-49 92 -86 202q-27 31 -72 43l-131 -288q-41 -82 -129 -146l-103 -28l-114 28l-103 -12l-43 12zM260 326h29v28h-15zM317 1120l17 -28v28h-17zM362 1092l29 -43q-6 27 -29 43zM377 326q4 -18 29 -29q-2 13 -29 29zM391 485l58 -28 v86l-29 14zM477 657q6 -27 29 -43zM492 889l43 43q-4 18 -29 29zM608 760q6 -66 29 -117q10 -45 57 -57q-10 63 -43 131zM854 1092q12 -33 43 -43zM926 1163l57 72q-37 -25 -57 -72zM1069 197q6 -27 29 -43q-6 29 -29 43z" />
<glyph unicode="y" horiz-adv-x="1130" d="M-74 1229q18 66 60 145l100 -12l31 12h43l176 -28l160 -248l59 -148q43 25 74 74l71 131q27 66 74 131q72 43 146 60l161 -15q61 -8 131 -45q-12 -63 -45 -131l-100 -100l-176 -221l-74 -132q-41 -61 -74 -131l31 -161l-14 -131l14 -43l14 -117l-28 -45l-148 -58l-174 29 q-51 55 -88 117l29 176l-29 174l29 45l-29 88l-233 365l-103 102zM305 1098q12 -33 45 -60zM336 950h29v45h-15zM481 395l117 -100l-14 72l14 16q-20 55 -57 86zM496 614h88q-18 86 -72 148l12 -103zM629 776q25 -25 57 -31zM760 981l28 -14l15 28l-29 15zM803 907l14 -28 v28h-14z" />
<glyph unicode="z" horiz-adv-x="1277" d="M57 256q18 82 72 158q41 61 117 131l231 274l160 86l115 146l-189 -58l-203 15l-157 -29l-43 29q-33 90 -45 188q23 86 71 172l437 -43l217 16l202 -16q96 -2 158 -100l-29 -58l17 -159q-57 -68 -131 -131l-234 -261l-129 -114q-72 -57 -159 -103q80 -25 188 -28l117 -15 l43 15h260l28 -29l17 -188l-17 -43q-47 -57 -129 -88l-159 28l-60 -12h-506q-94 12 -188 43q-49 80 -72 174zM303 414q2 -18 29 -29q-2 19 -29 29zM332 240l57 28q39 25 60 74l-74 29zM332 1239q4 -18 28 -29q-3 19 -28 29zM463 256l14 -59l15 43zM520 514q10 -18 43 -29 q-10 19 -43 29zM637 240q4 -18 29 -29q-4 19 -29 29zM637 805q2 -18 29 -29q-4 19 -29 29zM795 965l59 14q45 20 72 57h-58zM840 1122q2 -16 28 -28l15 16zM940 1153q28 -40 74 -74q-23 54 -74 74z" />
<glyph unicode="{" horiz-adv-x="681" />
<glyph unicode="|" horiz-adv-x="530" />
<glyph unicode="}" horiz-adv-x="681" />
<glyph unicode="~" horiz-adv-x="1193" />
<glyph unicode="&#xa1;" horiz-adv-x="595" d="M90 1268q25 65 86 116l158 64q82 -16 158 -51l16 -51l-16 -129q-6 -86 -27 -168l-203 -25q-84 20 -158 76zM104 168l15 260l-15 64l66 243l53 180q76 -27 162 -8l47 -119l45 -137l-28 -270l28 -49v-49l31 -244l-289 -96q-88 82 -115 225zM276 250q12 -23 43 -33 q-14 25 -43 33zM293 461h12l-12 31v-31z" />
<glyph unicode="&#xa2;" />
<glyph unicode="&#xa3;" />
<glyph unicode="&#xa5;" />
<glyph unicode="&#xa6;" horiz-adv-x="530" />
<glyph unicode="&#xa7;" />
<glyph unicode="&#xa8;" horiz-adv-x="530" d="M78 1589q25 47 61 80l88 51q53 -14 97 -51l10 -27l-10 -61v-27q-4 -59 -17 -112l-114 -10q-45 8 -89 45zM428 1597q10 41 35 105l115 18q45 -14 88 -53l16 -123q-20 -39 -61 -69l-89 -54q-45 14 -86 54z" />
<glyph unicode="&#xa9;" horiz-adv-x="1507" />
<glyph unicode="&#xaa;" horiz-adv-x="757" />
<glyph unicode="&#xab;" />
<glyph unicode="&#xac;" horiz-adv-x="1193" />
<glyph unicode="&#xad;" horiz-adv-x="864" d="M94 795q33 78 127 112h242v15h151l103 -15q59 -86 61 -200q-66 -76 -178 -91l-37 -12l-88 12l-90 -12q-113 4 -242 27q-43 60 -49 164z" />
<glyph unicode="&#xae;" horiz-adv-x="1507" />
<glyph unicode="&#xaf;" horiz-adv-x="1130" />
<glyph unicode="&#xb0;" horiz-adv-x="817" />
<glyph unicode="&#xb1;" horiz-adv-x="1122" />
<glyph unicode="&#xb2;" horiz-adv-x="681" />
<glyph unicode="&#xb3;" horiz-adv-x="681" />
<glyph unicode="&#xb4;" horiz-adv-x="505" d="M55 1434q8 68 37 127l117 145l12 31l6 24q33 35 84 35q43 0 156 -80q6 -82 -23 -133l-34 -47q-61 -61 -117 -102l-135 -86l-33 12z" />
<glyph unicode="&#xb5;" horiz-adv-x="1179" />
<glyph unicode="&#xb6;" horiz-adv-x="1099" />
<glyph unicode="&#xb7;" horiz-adv-x="567" />
<glyph unicode="&#x2219;" horiz-adv-x="567" />
<glyph unicode="&#xb8;" horiz-adv-x="1177" d="M106 -182l46 39l49 8l45 -33q27 -53 71 -70l27 31l-20 64q-31 49 -62 86l-45 108l23 58h12l10 6l4 -6h25q51 -6 78 -50l59 -86q33 -51 51 -100l10 -16l13 -86l-6 -31q-29 -49 -62 -88q-47 -43 -90 -55l-104 -9l-72 72l-51 102q-7 19 -11 56z" />
<glyph unicode="&#xb9;" horiz-adv-x="681" />
<glyph unicode="&#xba;" horiz-adv-x="747" />
<glyph unicode="&#xbb;" />
<glyph unicode="&#xbc;" horiz-adv-x="1705" />
<glyph unicode="&#xbd;" horiz-adv-x="1705" />
<glyph unicode="&#xbe;" horiz-adv-x="1705" />
<glyph unicode="&#xbf;" horiz-adv-x="1177" d="M86 313l27 158l28 29q55 104 127 184l158 156q72 78 199 86h57l12 12l29 -12h29l57 -101l-115 -198q-68 -57 -155 -156l-58 -113l72 -57q111 27 184 127l115 57l127 -14l113 -72q-6 -53 -27 -98l-129 -184l-184 -129l-271 14q-106 20 -225 100q-86 70 -158 156zM268 500 l31 -58q-2 29 -31 58zM326 330q8 -37 43 -72q-10 45 -43 72zM416 1229q27 72 69 141l187 29q68 -20 139 -72l-12 -156q-10 -74 -43 -143l-158 29q-45 -10 -113 -15l-26 29zM455 713q12 -20 41 -29zM809 244q4 -18 29 -29q-6 21 -29 29z" />
<glyph unicode="&#xc0;" horiz-adv-x="1153" d="M-80 141l115 256l14 158l74 131l129 416l55 112q25 66 72 129l129 43q98 -6 172 -28l115 -72q37 -66 57 -129l72 -258l57 -113l43 -145l72 -113q14 -84 43 -143l55 -129l31 -100l-25 -52l-115 -69h-129v-15l-43 15q-55 20 -100 69q-29 74 -33 152l-28 14l-58 -28l-28 14 h-187q-61 -20 -100 -86l-72 -115l-143 -43l-158 29q-47 41 -86 100zM123 213l55 14q-4 18 -28 29zM264 672q18 -31 58 -43zM279 813q37 -66 114 -98q-38 55 -114 98zM379 1130q23 -37 72 -59zM424 485q4 -29 27 -43q-7 29 -27 43zM436 930h58q0 55 -29 112zM494 569l129 -14 q28 12 43 43l-29 129q-31 83 -86 172q-2 -104 -43 -227zM494 1200q18 -31 57 -55l29 26l-29 43zM666 1130q2 -18 28 -28l58 28h-86zM737 442l86 -143q-25 77 -86 143zM795 528l57 70h-57v-70zM795 844q12 -25 43 -43q-12 31 -43 43zM866 741h29v45h-14zM881 641 q6 -18 28 -27q-1 17 -28 27zM938 270q4 -18 29 -28q-4 18 -29 28zM967 371q4 -12 28 -29q-3 19 -28 29zM378 1786q68 61 132 67q66 6 100 -31l6 -24l12 -33l82 -151q29 -59 37 -127l-68 -74l-32 -12l-23 8q-55 41 -117 102l-102 119l-4 22q-29 52 -23 134z" />
<glyph unicode="&#xc1;" horiz-adv-x="1153" d="M-80 141l115 256l14 158l74 131l129 416l55 112q25 66 72 129l129 43q98 -6 172 -28l115 -72q37 -66 57 -129l72 -258l57 -113l43 -145l72 -113q14 -84 43 -143l55 -129l31 -100l-25 -52l-115 -69h-129v-15l-43 15q-55 20 -100 69q-29 74 -33 152l-28 14l-58 -28l-28 14 h-187q-61 -20 -100 -86l-72 -115l-143 -43l-158 29q-47 41 -86 100zM123 213l55 14q-4 18 -28 29zM264 672q18 -31 58 -43zM279 813q37 -66 114 -98q-38 55 -114 98zM379 1130q23 -37 72 -59zM424 485q4 -29 27 -43q-7 29 -27 43zM436 930h58q0 55 -29 112zM494 569l129 -14 q28 12 43 43l-29 129q-31 83 -86 172q-2 -104 -43 -227zM494 1200q18 -31 57 -55l29 26l-29 43zM666 1130q2 -18 28 -28l58 28h-86zM737 442l86 -143q-25 77 -86 143zM795 528l57 70h-57v-70zM795 844q12 -25 43 -43q-12 31 -43 43zM866 741h29v45h-14zM881 641 q6 -18 28 -27q-1 17 -28 27zM938 270q4 -18 29 -28q-4 18 -29 28zM967 371q4 -12 28 -29q-3 19 -28 29zM426 1483q8 68 37 127l117 145l12 31l6 24q33 35 84 35q43 0 156 -80q6 -82 -23 -133l-34 -47q-61 -61 -117 -102l-135 -86l-33 12z" />
<glyph unicode="&#xc2;" horiz-adv-x="1153" d="M-80 141l115 256l14 158l74 131l129 416l55 112q25 66 72 129l129 43q98 -6 172 -28l115 -72q37 -66 57 -129l72 -258l57 -113l43 -145l72 -113q14 -84 43 -143l55 -129l31 -100l-25 -52l-115 -69h-129v-15l-43 15q-55 20 -100 69q-29 74 -33 152l-28 14l-58 -28l-28 14 h-187q-61 -20 -100 -86l-72 -115l-143 -43l-158 29q-47 41 -86 100zM123 213l55 14q-4 18 -28 29zM264 672q18 -31 58 -43zM279 813q37 -66 114 -98q-38 55 -114 98zM379 1130q23 -37 72 -59zM424 485q4 -29 27 -43q-7 29 -27 43zM436 930h58q0 55 -29 112zM494 569l129 -14 q28 12 43 43l-29 129q-31 83 -86 172q-2 -104 -43 -227zM494 1200q18 -31 57 -55l29 26l-29 43zM666 1130q2 -18 28 -28l58 28h-86zM737 442l86 -143q-25 77 -86 143zM795 528l57 70h-57v-70zM795 844q12 -25 43 -43q-12 31 -43 43zM866 741h29v45h-14zM881 641 q6 -18 28 -27q-1 17 -28 27zM938 270q4 -18 29 -28q-4 18 -29 28zM967 371q4 -12 28 -29q-3 19 -28 29zM317 1450q14 84 35 151l53 146l21 14q31 49 79 88l58 -6q84 -4 127 8l41 -53l2 -35l35 -47l65 -139l-4 -144l-104 -65l-33 22l-82 123q-16 61 -29 96l-45 -139 q-39 -51 -94 -92l-96 25l-29 22v25z" />
<glyph unicode="&#xc3;" horiz-adv-x="1153" d="M-80 141l115 256l14 158l74 131l129 416l55 112q25 66 72 129l129 43q98 -6 172 -28l115 -72q37 -66 57 -129l72 -258l57 -113l43 -145l72 -113q14 -84 43 -143l55 -129l31 -100l-25 -52l-115 -69h-129v-15l-43 15q-55 20 -100 69q-29 74 -33 152l-28 14l-58 -28l-28 14 h-187q-61 -20 -100 -86l-72 -115l-143 -43l-158 29q-47 41 -86 100zM123 213l55 14q-4 18 -28 29zM264 672q18 -31 58 -43zM279 813q37 -66 114 -98q-38 55 -114 98zM379 1130q23 -37 72 -59zM424 485q4 -29 27 -43q-7 29 -27 43zM436 930h58q0 55 -29 112zM494 569l129 -14 q28 12 43 43l-29 129q-31 83 -86 172q-2 -104 -43 -227zM494 1200q18 -31 57 -55l29 26l-29 43zM666 1130q2 -18 28 -28l58 28h-86zM737 442l86 -143q-25 77 -86 143zM795 528l57 70h-57v-70zM795 844q12 -25 43 -43q-12 31 -43 43zM866 741h29v45h-14zM881 641 q6 -18 28 -27q-1 17 -28 27zM938 270q4 -18 29 -28q-4 18 -29 28zM967 371q4 -12 28 -29q-3 19 -28 29zM223 1587l66 102v50l2 24l41 39q76 -20 161 -20l58 6l4 -4l6 2q51 -27 94 -70l43 -100q12 25 29 69l84 90l33 17l104 -47l2 -105l-94 -90l-35 -35l-2 -24l-41 -39 q-31 6 -127 6l-29 -19l-4 5l-6 -2q-55 29 -94 67l-43 103q-12 -25 -29 -70l-84 -90l-32 -17l-105 48z" />
<glyph unicode="&#xc4;" horiz-adv-x="1153" d="M-80 141l115 256l14 158l74 131l129 416l55 112q25 66 72 129l129 43q98 -6 172 -28l115 -72q37 -66 57 -129l72 -258l57 -113l43 -145l72 -113q14 -84 43 -143l55 -129l31 -100l-25 -52l-115 -69h-129v-15l-43 15q-55 20 -100 69q-29 74 -33 152l-28 14l-58 -28l-28 14 h-187q-61 -20 -100 -86l-72 -115l-143 -43l-158 29q-47 41 -86 100zM123 213l55 14q-4 18 -28 29zM264 672q18 -31 58 -43zM279 813q37 -66 114 -98q-38 55 -114 98zM379 1130q23 -37 72 -59zM424 485q4 -29 27 -43q-7 29 -27 43zM436 930h58q0 55 -29 112zM494 569l129 -14 q28 12 43 43l-29 129q-31 83 -86 172q-2 -104 -43 -227zM494 1200q18 -31 57 -55l29 26l-29 43zM666 1130q2 -18 28 -28l58 28h-86zM737 442l86 -143q-25 77 -86 143zM795 528l57 70h-57v-70zM795 844q12 -25 43 -43q-12 31 -43 43zM866 741h29v45h-14zM881 641 q6 -18 28 -27q-1 17 -28 27zM938 270q4 -18 29 -28q-4 18 -29 28zM967 371q4 -12 28 -29q-3 19 -28 29zM250 1618q25 47 61 80l88 51q53 -14 97 -51l10 -27l-10 -61v-27q-4 -59 -17 -112l-114 -10q-45 8 -89 45zM600 1626q10 41 35 105l115 18q45 -14 88 -53l16 -123 q-20 -39 -61 -69l-89 -54q-45 14 -86 54z" />
<glyph unicode="&#xc5;" horiz-adv-x="1363" />
<glyph unicode="&#xc6;" horiz-adv-x="2048" />
<glyph unicode="&#xc7;" horiz-adv-x="1290" d="M92 594l14 194l-14 113l14 29l15 41l69 155l113 111l139 86l168 55q80 -6 185 -28l182 -43q49 -41 110 -113l113 -125q-18 -74 -70 -139q-66 -53 -139 -84q-74 29 -141 84l-125 96l-156 -70q-57 -57 -98 -125l-12 -112l12 -41v-43l55 -168l142 -84q84 12 168 55l112 113 q82 -10 156 -41q57 -47 110 -127q-29 -63 -84 -141l-126 -113l-140 -84l-153 -12l-43 12l-58 -12l-139 26l-154 70l-196 268zM233 748h27v40h-12zM260 705q23 -20 57 -27zM274 565h29v56h-14zM289 930q0 -23 28 -29q27 43 41 98q-10 16 -41 27zM317 510q14 -51 58 -84 q-5 53 -58 84zM387 242q53 23 84 57q-39 -16 -84 -57zM555 1223q40 6 43 43zM569 1126q0 -27 29 -43zM610 242l29 14l-29 14v-28zM752 242q20 -25 57 -41q46 37 111 55q-6 35 -41 55zM795 1182q4 -33 26 -56l15 56h-41zM879 1083l57 43l-31 41zM448 -182l46 39l49 8l45 -33 q27 -53 71 -70l27 31l-20 64q-31 49 -62 86l-45 108l23 58h12l10 6l4 -6h25q51 -6 78 -50l59 -86q33 -51 51 -100l10 -16l13 -86l-6 -31q-29 -49 -62 -88q-47 -43 -90 -55l-104 -9l-72 72l-51 102q-7 19 -11 56z" />
<glyph unicode="&#xc8;" horiz-adv-x="1198" d="M82 295l12 45l17 115l-17 28v88l17 246l-17 205l17 248q41 61 116 114l232 -26l219 12l188 -12l43 12q90 -16 160 -72l14 -159l-14 -43l-43 -74l-102 -14l-29 14l-436 14l45 -145l434 31l43 -17l74 -57l-15 -117q-25 -80 -73 -160l-217 -14l-203 57q-66 -72 -74 -174 q72 -33 174 -43l408 29l45 -29l26 -159q-10 -96 -57 -189l-160 -14l-43 14l-219 29q-102 -27 -203 -29l-202 -31q-78 35 -148 117zM213 426q12 -37 57 -57q-12 39 -57 57zM242 817l14 -43l14 31zM256 221l43 -43q-9 31 -43 43zM256 571q0 -31 29 -59q0 30 -29 59zM270 862 q6 -20 29 -28l14 14zM299 512l14 -29v29h-14zM299 979q37 34 43 86zM328 762l14 -45l14 28zM371 383q6 -18 30 -31q-2 22 -30 31zM387 238l29 -45q29 53 28 116zM604 252l14 -59l60 28zM735 1253q20 -45 72 -71q-21 34 -72 71zM750 209q37 16 43 57zM405 1786q68 61 132 67 q66 6 100 -31l6 -24l12 -33l82 -151q29 -59 37 -127l-68 -74l-32 -12l-23 8q-55 41 -117 102l-102 119l-4 22q-29 52 -23 134z" />
<glyph unicode="&#xc9;" horiz-adv-x="1198" d="M82 295l12 45l17 115l-17 28v88l17 246l-17 205l17 248q41 61 116 114l232 -26l219 12l188 -12l43 12q90 -16 160 -72l14 -159l-14 -43l-43 -74l-102 -14l-29 14l-436 14l45 -145l434 31l43 -17l74 -57l-15 -117q-25 -80 -73 -160l-217 -14l-203 57q-66 -72 -74 -174 q72 -33 174 -43l408 29l45 -29l26 -159q-10 -96 -57 -189l-160 -14l-43 14l-219 29q-102 -27 -203 -29l-202 -31q-78 35 -148 117zM213 426q12 -37 57 -57q-12 39 -57 57zM242 817l14 -43l14 31zM256 221l43 -43q-9 31 -43 43zM256 571q0 -31 29 -59q0 30 -29 59zM270 862 q6 -20 29 -28l14 14zM299 512l14 -29v29h-14zM299 979q37 34 43 86zM328 762l14 -45l14 28zM371 383q6 -18 30 -31q-2 22 -30 31zM387 238l29 -45q29 53 28 116zM604 252l14 -59l60 28zM735 1253q20 -45 72 -71q-21 34 -72 71zM750 209q37 16 43 57zM442 1483q8 68 37 127 l117 145l12 31l6 24q33 35 84 35q43 0 156 -80q6 -82 -23 -133l-34 -47q-61 -61 -117 -102l-135 -86l-33 12z" />
<glyph unicode="&#xca;" horiz-adv-x="1198" d="M82 295l12 45l17 115l-17 28v88l17 246l-17 205l17 248q41 61 116 114l232 -26l219 12l188 -12l43 12q90 -16 160 -72l14 -159l-14 -43l-43 -74l-102 -14l-29 14l-436 14l45 -145l434 31l43 -17l74 -57l-15 -117q-25 -80 -73 -160l-217 -14l-203 57q-66 -72 -74 -174 q72 -33 174 -43l408 29l45 -29l26 -159q-10 -96 -57 -189l-160 -14l-43 14l-219 29q-102 -27 -203 -29l-202 -31q-78 35 -148 117zM213 426q12 -37 57 -57q-12 39 -57 57zM242 817l14 -43l14 31zM256 221l43 -43q-9 31 -43 43zM256 571q0 -31 29 -59q0 30 -29 59zM270 862 q6 -20 29 -28l14 14zM299 512l14 -29v29h-14zM299 979q37 34 43 86zM328 762l14 -45l14 28zM371 383q6 -18 30 -31q-2 22 -30 31zM387 238l29 -45q29 53 28 116zM604 252l14 -59l60 28zM735 1253q20 -45 72 -71q-21 34 -72 71zM750 209q37 16 43 57zM346 1460q14 84 35 151 l53 146l21 14q31 49 79 88l58 -6q84 -4 127 8l41 -53l2 -35l35 -47l65 -139l-4 -144l-104 -65l-33 22l-82 123q-16 61 -29 96l-45 -139q-39 -51 -94 -92l-96 25l-29 22v25z" />
<glyph unicode="&#xcb;" horiz-adv-x="1198" d="M82 295l12 45l17 115l-17 28v88l17 246l-17 205l17 248q41 61 116 114l232 -26l219 12l188 -12l43 12q90 -16 160 -72l14 -159l-14 -43l-43 -74l-102 -14l-29 14l-436 14l45 -145l434 31l43 -17l74 -57l-15 -117q-25 -80 -73 -160l-217 -14l-203 57q-66 -72 -74 -174 q72 -33 174 -43l408 29l45 -29l26 -159q-10 -96 -57 -189l-160 -14l-43 14l-219 29q-102 -27 -203 -29l-202 -31q-78 35 -148 117zM213 426q12 -37 57 -57q-12 39 -57 57zM242 817l14 -43l14 31zM256 221l43 -43q-9 31 -43 43zM256 571q0 -31 29 -59q0 30 -29 59zM270 862 q6 -20 29 -28l14 14zM299 512l14 -29v29h-14zM299 979q37 34 43 86zM328 762l14 -45l14 28zM371 383q6 -18 30 -31q-2 22 -30 31zM387 238l29 -45q29 53 28 116zM604 252l14 -59l60 28zM735 1253q20 -45 72 -71q-21 34 -72 71zM750 209q37 16 43 57zM301 1601q25 47 61 80 l88 51q53 -14 97 -51l10 -27l-10 -61v-27q-4 -59 -17 -112l-114 -10q-45 8 -89 45zM651 1609q10 41 35 105l115 18q45 -14 88 -53l16 -123q-20 -39 -61 -69l-89 -54q-45 14 -86 54z" />
<glyph unicode="&#xcc;" horiz-adv-x="595" d="M82 367q23 47 29 118l14 205l-14 191l14 43l-31 366l17 43l190 60q98 -28 191 -74l14 -219l-31 -133l31 -58l-31 -395l31 -88l-14 -102v-29h14l-14 -16l28 -160l-28 -45q-78 -51 -191 -58q-100 20 -190 72l-17 133l17 103zM242 221l45 -14l14 72l-45 16zM242 500 q25 -31 59 -31zM270 1114q10 -25 45 -29q-10 19 -45 29zM301 557l14 -29v29h-14zM301 1231l29 -43l14 43h-43zM315 1174l15 -46v46h-15zM30 1784q68 61 132 67q66 6 100 -31l6 -24l12 -33l82 -151q29 -59 37 -127l-68 -74l-32 -12l-23 8q-55 41 -117 102l-102 119l-4 22 q-29 52 -23 134z" />
<glyph unicode="&#xcd;" horiz-adv-x="595" d="M82 367q23 47 29 118l14 205l-14 191l14 43l-31 366l17 43l190 60q98 -28 191 -74l14 -219l-31 -133l31 -58l-31 -395l31 -88l-14 -102v-29h14l-14 -16l28 -160l-28 -45q-78 -51 -191 -58q-100 20 -190 72l-17 133l17 103zM242 221l45 -14l14 72l-45 16zM242 500 q25 -31 59 -31zM270 1114q10 -25 45 -29q-10 19 -45 29zM301 557l14 -29v29h-14zM301 1231l29 -43l14 43h-43zM315 1174l15 -46v46h-15zM194 1487q8 68 37 127l117 145l12 31l6 24q33 35 84 35q43 0 156 -80q6 -82 -23 -133l-34 -47q-61 -61 -117 -102l-135 -86l-33 12z" />
<glyph unicode="&#xce;" horiz-adv-x="595" d="M82 367q23 47 29 118l14 205l-14 191l14 43l-31 366l17 43l190 60q98 -28 191 -74l14 -219l-31 -133l31 -58l-31 -395l31 -88l-14 -102v-29h14l-14 -16l28 -160l-28 -45q-78 -51 -191 -58q-100 20 -190 72l-17 133l17 103zM242 221l45 -14l14 72l-45 16zM242 500 q25 -31 59 -31zM270 1114q10 -25 45 -29q-10 19 -45 29zM301 557l14 -29v29h-14zM301 1231l29 -43l14 43h-43zM315 1174l15 -46v46h-15zM37 1456q14 84 35 151l53 146l21 14q31 49 79 88l58 -6q84 -4 127 8l41 -53l2 -35l35 -47l65 -139l-4 -144l-104 -65l-33 22l-82 123 q-16 61 -29 96l-45 -139q-39 -51 -94 -92l-96 25l-29 22v25z" />
<glyph unicode="&#xcf;" horiz-adv-x="595" d="M82 367q23 47 29 118l14 205l-14 191l14 43l-31 366l17 43l190 60q98 -28 191 -74l14 -219l-31 -133l31 -58l-31 -395l31 -88l-14 -102v-29h14l-14 -16l28 -160l-28 -45q-78 -51 -191 -58q-100 20 -190 72l-17 133l17 103zM242 221l45 -14l14 72l-45 16zM242 500 q25 -31 59 -31zM270 1114q10 -25 45 -29q-10 19 -45 29zM301 557l14 -29v29h-14zM301 1231l29 -43l14 43h-43zM315 1174l15 -46v46h-15zM-8 1591q25 47 61 80l88 51q53 -14 97 -51l10 -27l-10 -61v-27q-4 -59 -17 -112l-114 -10q-45 8 -89 45zM342 1599q10 41 35 105l115 18 q45 -14 88 -53l16 -123q-20 -39 -61 -69l-89 -54q-45 14 -86 54z" />
<glyph unicode="&#xd0;" horiz-adv-x="1478" />
<glyph unicode="&#xd1;" horiz-adv-x="1345" d="M74 1255q55 90 159 131l279 -28l319 -570l58 -159v88l-43 465l14 45q2 119 131 143l160 16l57 -28q43 -119 45 -262l-14 -160l14 -45v-29h15l-15 -14l-28 -205v-45h14l-14 -43l28 -100l-14 -45l14 -277l-28 -43l-219 -74q-106 25 -203 103q-55 102 -88 219 q-51 66 -117 174l-102 205l59 203l14 88h-88l60 -45l-74 -189l-29 -43l43 -190l31 -437l-74 -57l-248 -31q-66 72 -88 191l17 160l-17 102l17 129l-31 264l14 86l17 45q-8 102 -45 262zM219 512l60 -43l14 43h-74zM233 1051l46 -29q-15 19 -46 29zM279 774q23 -31 57 -43z M307 352q18 -37 58 -45zM307 1210q51 -86 146 -159q-19 120 -146 159zM336 598l14 -27v27h-14zM365 1036l16 -28v28h-16zM438 936h15l43 43h-58v-43zM684 629q41 -39 119 -88l12 57l-12 31h-119zM860 381l88 45l-59 12zM874 586q18 10 29 43zM889 352q12 -35 59 -57 q-22 30 -59 57zM963 1051l28 16l15 -16l14 59l-43 12zM977 817l29 -57q-6 34 -29 57zM991 207q49 6 74 43q-40 -12 -74 -43zM1020 686q33 -25 74 -29zM1108 891q2 -18 29 -29l14 15zM301 1597l66 102v50l2 24l41 39q76 -20 161 -20l58 6l4 -4l6 2q51 -27 94 -70l43 -100 q12 25 29 69l84 90l33 17l104 -47l2 -105l-94 -90l-35 -35l-2 -24l-41 -39q-31 6 -127 6l-29 -19l-4 5l-6 -2q-55 29 -94 67l-43 103q-12 -25 -29 -70l-84 -90l-32 -17l-105 48z" />
<glyph unicode="&#xd2;" horiz-adv-x="1460" d="M90 553l14 264q12 115 70 250l168 180l209 125h221l98 -26q104 -23 236 -99q92 -63 168 -180l84 -238q-23 -76 -29 -151l14 -55q-20 -143 -69 -279l-168 -180q-78 -53 -209 -125l-305 -14q-115 35 -238 110q-80 61 -180 154zM229 956q6 -27 29 -43l14 43h-43zM258 580 l27 14v29h-13zM258 774l41 -26l29 14q-8 47 -43 84zM299 399l43 41l-29 15zM383 539l14 -29v29h-14zM383 1024q6 -27 29 -53l26 53h-55zM426 1151q23 -23 55 -29zM467 707q6 -102 70 -209q83 -80 208 -99q98 35 166 125q29 86 41 238q-10 94 -67 180q-92 51 -209 82 l-182 -137zM467 1053q4 -20 27 -29q-4 21 -27 29zM592 190l41 -14l29 29l-41 55zM758 150l43 14l55 26q-6 45 -43 70q-33 -23 -55 -70v-40zM938 1163q29 -100 139 -125zM1036 498q4 -18 29 -29q-4 13 -29 29zM1065 580q15 -52 55 -111l-14 111l84 57h-55zM1094 774 q2 -16 26 -26q-1 18 -26 26zM1149 817q4 -20 27 -29l14 15zM464 1780q68 61 132 67q66 6 100 -31l6 -24l12 -33l82 -151q29 -59 37 -127l-68 -74l-32 -12l-23 8q-55 41 -117 102l-102 119l-4 22q-29 52 -23 134z" />
<glyph unicode="&#xd3;" horiz-adv-x="1460" d="M90 553l14 264q12 115 70 250l168 180l209 125h221l98 -26q104 -23 236 -99q92 -63 168 -180l84 -238q-23 -76 -29 -151l14 -55q-20 -143 -69 -279l-168 -180q-78 -53 -209 -125l-305 -14q-115 35 -238 110q-80 61 -180 154zM229 956q6 -27 29 -43l14 43h-43zM258 580 l27 14v29h-13zM258 774l41 -26l29 14q-8 47 -43 84zM299 399l43 41l-29 15zM383 539l14 -29v29h-14zM383 1024q6 -27 29 -53l26 53h-55zM426 1151q23 -23 55 -29zM467 707q6 -102 70 -209q83 -80 208 -99q98 35 166 125q29 86 41 238q-10 94 -67 180q-92 51 -209 82 l-182 -137zM467 1053q4 -20 27 -29q-4 21 -27 29zM592 190l41 -14l29 29l-41 55zM758 150l43 14l55 26q-6 45 -43 70q-33 -23 -55 -70v-40zM938 1163q29 -100 139 -125zM1036 498q4 -18 29 -29q-4 13 -29 29zM1065 580q15 -52 55 -111l-14 111l84 57h-55zM1094 774 q2 -16 26 -26q-1 18 -26 26zM1149 817q4 -20 27 -29l14 15zM610 1487q8 68 37 127l117 145l12 31l6 24q33 35 84 35q43 0 156 -80q6 -82 -23 -133l-34 -47q-61 -61 -117 -102l-135 -86l-33 12z" />
<glyph unicode="&#xd4;" horiz-adv-x="1460" d="M90 553l14 264q12 115 70 250l168 180l209 125h221l98 -26q104 -23 236 -99q92 -63 168 -180l84 -238q-23 -76 -29 -151l14 -55q-20 -143 -69 -279l-168 -180q-78 -53 -209 -125l-305 -14q-115 35 -238 110q-80 61 -180 154zM229 956q6 -27 29 -43l14 43h-43zM258 580 l27 14v29h-13zM258 774l41 -26l29 14q-8 47 -43 84zM299 399l43 41l-29 15zM383 539l14 -29v29h-14zM383 1024q6 -27 29 -53l26 53h-55zM426 1151q23 -23 55 -29zM467 707q6 -102 70 -209q83 -80 208 -99q98 35 166 125q29 86 41 238q-10 94 -67 180q-92 51 -209 82 l-182 -137zM467 1053q4 -20 27 -29q-4 21 -27 29zM592 190l41 -14l29 29l-41 55zM758 150l43 14l55 26q-6 45 -43 70q-33 -23 -55 -70v-40zM938 1163q29 -100 139 -125zM1036 498q4 -18 29 -29q-4 13 -29 29zM1065 580q15 -52 55 -111l-14 111l84 57h-55zM1094 774 q2 -16 26 -26q-1 18 -26 26zM1149 817q4 -20 27 -29l14 15zM436 1456q14 84 35 151l53 146l21 14q31 49 79 88l58 -6q84 -4 127 8l41 -53l2 -35l35 -47l65 -139l-4 -144l-104 -65l-33 22l-82 123q-16 61 -29 96l-45 -139q-39 -51 -94 -92l-96 25l-29 22v25z" />
<glyph unicode="&#xd5;" horiz-adv-x="1460" d="M90 553l14 264q12 115 70 250l168 180l209 125h221l98 -26q104 -23 236 -99q92 -63 168 -180l84 -238q-23 -76 -29 -151l14 -55q-20 -143 -69 -279l-168 -180q-78 -53 -209 -125l-305 -14q-115 35 -238 110q-80 61 -180 154zM229 956q6 -27 29 -43l14 43h-43zM258 580 l27 14v29h-13zM258 774l41 -26l29 14q-8 47 -43 84zM299 399l43 41l-29 15zM383 539l14 -29v29h-14zM383 1024q6 -27 29 -53l26 53h-55zM426 1151q23 -23 55 -29zM467 707q6 -102 70 -209q83 -80 208 -99q98 35 166 125q29 86 41 238q-10 94 -67 180q-92 51 -209 82 l-182 -137zM467 1053q4 -20 27 -29q-4 21 -27 29zM592 190l41 -14l29 29l-41 55zM758 150l43 14l55 26q-6 45 -43 70q-33 -23 -55 -70v-40zM938 1163q29 -100 139 -125zM1036 498q4 -18 29 -29q-4 13 -29 29zM1065 580q15 -52 55 -111l-14 111l84 57h-55zM1094 774 q2 -16 26 -26q-1 18 -26 26zM1149 817q4 -20 27 -29l14 15zM348 1602l66 102v50l2 24l41 39q76 -20 161 -20l58 6l4 -4l6 2q51 -27 94 -70l43 -100q12 25 29 69l84 90l33 17l104 -47l2 -105l-94 -90l-35 -35l-2 -24l-41 -39q-31 6 -127 6l-29 -19l-4 5l-6 -2q-55 29 -94 67 l-43 103q-12 -25 -29 -70l-84 -90l-32 -17l-105 48z" />
<glyph unicode="&#xd6;" horiz-adv-x="1460" d="M90 553l14 264q12 115 70 250l168 180l209 125h221l98 -26q104 -23 236 -99q92 -63 168 -180l84 -238q-23 -76 -29 -151l14 -55q-20 -143 -69 -279l-168 -180q-78 -53 -209 -125l-305 -14q-115 35 -238 110q-80 61 -180 154zM229 956q6 -27 29 -43l14 43h-43zM258 580 l27 14v29h-13zM258 774l41 -26l29 14q-8 47 -43 84zM299 399l43 41l-29 15zM383 539l14 -29v29h-14zM383 1024q6 -27 29 -53l26 53h-55zM426 1151q23 -23 55 -29zM467 707q6 -102 70 -209q83 -80 208 -99q98 35 166 125q29 86 41 238q-10 94 -67 180q-92 51 -209 82 l-182 -137zM467 1053q4 -20 27 -29q-4 21 -27 29zM592 190l41 -14l29 29l-41 55zM758 150l43 14l55 26q-6 45 -43 70q-33 -23 -55 -70v-40zM938 1163q29 -100 139 -125zM1036 498q4 -18 29 -29q-4 13 -29 29zM1065 580q15 -52 55 -111l-14 111l84 57h-55zM1094 774 q2 -16 26 -26q-1 18 -26 26zM1149 817q4 -20 27 -29l14 15zM395 1628q25 47 61 80l88 51q53 -14 97 -51l10 -27l-10 -61v-27q-4 -59 -17 -112l-114 -10q-45 8 -89 45zM745 1636q10 41 35 105l115 18q45 -14 88 -53l16 -123q-20 -39 -61 -69l-89 -54q-45 14 -86 54z" />
<glyph unicode="&#xd7;" horiz-adv-x="1193" />
<glyph unicode="&#xd8;" horiz-adv-x="1591" />
<glyph unicode="&#xd9;" horiz-adv-x="1304" d="M98 668v245l15 158q-14 94 -15 232l144 86q92 -12 202 -43l72 -58l-29 -520l15 -229q18 -78 57 -146l146 -28l43 16q51 68 71 158l-14 217l14 157l-14 58l14 186l-28 103l14 28l29 43l174 58q92 -8 200 -43l17 -58l-17 -160l-43 -43q18 -41 29 -114l-14 -215l28 -146 l-14 -57q-2 -96 -29 -215q-37 -72 -86 -131l-131 -117l-186 -55l-72 14l-57 -31l-45 17l-201 26l-131 115q-51 45 -115 131zM242 928l45 -29l28 72l-45 43zM287 610l43 -14v57l-15 15zM315 524q6 -14 29 -28q-4 18 -29 28zM358 410q2 -18 29 -29q-6 15 -29 29zM401 350 l15 -43v43h-15zM545 221q6 -20 28 -28q-3 18 -28 28zM965 1057l14 -43v43h-14zM979 625l12 -43v43h-12zM979 639q18 4 29 29l57 28l-57 88zM1022 1102q8 -23 29 -31q-6 17 -29 31zM395 1776q68 61 132 67q66 6 100 -31l6 -24l12 -33l82 -151q29 -59 37 -127l-68 -74l-32 -12 l-23 8q-55 41 -117 102l-102 119l-4 22q-29 52 -23 134z" />
<glyph unicode="&#xda;" horiz-adv-x="1304" d="M98 668v245l15 158q-14 94 -15 232l144 86q92 -12 202 -43l72 -58l-29 -520l15 -229q18 -78 57 -146l146 -28l43 16q51 68 71 158l-14 217l14 157l-14 58l14 186l-28 103l14 28l29 43l174 58q92 -8 200 -43l17 -58l-17 -160l-43 -43q18 -41 29 -114l-14 -215l28 -146 l-14 -57q-2 -96 -29 -215q-37 -72 -86 -131l-131 -117l-186 -55l-72 14l-57 -31l-45 17l-201 26l-131 115q-51 45 -115 131zM242 928l45 -29l28 72l-45 43zM287 610l43 -14v57l-15 15zM315 524q6 -14 29 -28q-4 18 -29 28zM358 410q2 -18 29 -29q-6 15 -29 29zM401 350 l15 -43v43h-15zM545 221q6 -20 28 -28q-3 18 -28 28zM965 1057l14 -43v43h-14zM979 625l12 -43v43h-12zM979 639q18 4 29 29l57 28l-57 88zM1022 1102q8 -23 29 -31q-6 17 -29 31zM549 1483q8 68 37 127l117 145l12 31l6 24q33 35 84 35q43 0 156 -80q6 -82 -23 -133 l-34 -47q-61 -61 -117 -102l-135 -86l-33 12z" />
<glyph unicode="&#xdb;" horiz-adv-x="1304" d="M98 668v245l15 158q-14 94 -15 232l144 86q92 -12 202 -43l72 -58l-29 -520l15 -229q18 -78 57 -146l146 -28l43 16q51 68 71 158l-14 217l14 157l-14 58l14 186l-28 103l14 28l29 43l174 58q92 -8 200 -43l17 -58l-17 -160l-43 -43q18 -41 29 -114l-14 -215l28 -146 l-14 -57q-2 -96 -29 -215q-37 -72 -86 -131l-131 -117l-186 -55l-72 14l-57 -31l-45 17l-201 26l-131 115q-51 45 -115 131zM242 928l45 -29l28 72l-45 43zM287 610l43 -14v57l-15 15zM315 524q6 -14 29 -28q-4 18 -29 28zM358 410q2 -18 29 -29q-6 15 -29 29zM401 350 l15 -43v43h-15zM545 221q6 -20 28 -28q-3 18 -28 28zM965 1057l14 -43v43h-14zM979 625l12 -43v43h-12zM979 639q18 4 29 29l57 28l-57 88zM1022 1102q8 -23 29 -31q-6 17 -29 31zM391 1450q14 84 35 151l53 146l21 14q31 49 79 88l58 -6q84 -4 127 8l41 -53l2 -35l35 -47 l65 -139l-4 -144l-104 -65l-33 22l-82 123q-16 61 -29 96l-45 -139q-39 -51 -94 -92l-96 25l-29 22v25z" />
<glyph unicode="&#xdc;" horiz-adv-x="1304" d="M98 668v245l15 158q-14 94 -15 232l144 86q92 -12 202 -43l72 -58l-29 -520l15 -229q18 -78 57 -146l146 -28l43 16q51 68 71 158l-14 217l14 157l-14 58l14 186l-28 103l14 28l29 43l174 58q92 -8 200 -43l17 -58l-17 -160l-43 -43q18 -41 29 -114l-14 -215l28 -146 l-14 -57q-2 -96 -29 -215q-37 -72 -86 -131l-131 -117l-186 -55l-72 14l-57 -31l-45 17l-201 26l-131 115q-51 45 -115 131zM242 928l45 -29l28 72l-45 43zM287 610l43 -14v57l-15 15zM315 524q6 -14 29 -28q-4 18 -29 28zM358 410q2 -18 29 -29q-6 15 -29 29zM401 350 l15 -43v43h-15zM545 221q6 -20 28 -28q-3 18 -28 28zM965 1057l14 -43v43h-14zM979 625l12 -43v43h-12zM979 639q18 4 29 29l57 28l-57 88zM1022 1102q8 -23 29 -31q-6 17 -29 31zM340 1628q25 47 61 80l88 51q53 -14 97 -51l10 -27l-10 -61v-27q-4 -59 -17 -112l-114 -10 q-45 8 -89 45zM690 1636q10 41 35 105l115 18q45 -14 88 -53l16 -123q-20 -39 -61 -69l-89 -54q-45 14 -86 54z" />
<glyph unicode="&#xdd;" horiz-adv-x="1363" />
<glyph unicode="&#xde;" horiz-adv-x="1363" />
<glyph unicode="&#xdf;" horiz-adv-x="1271" d="M94 186l15 234l-15 205l15 45l-15 145l31 59l2 146q43 328 401 373l50 -4l-3 6l240 -17l43 -18l186 -86l74 -121l29 -57l-29 -144l-49 -219l88 -158q49 -57 37 -135l20 -73l-28 -58q4 -82 -53 -149q-72 -53 -158 -101l-301 -59l-80 27q-14 293 59 309q72 4 135 24l66 43 q-43 76 -113 129q-104 16 -172 101q4 133 54 198q70 49 161 39l19 97l-49 100l-160 -20q-102 -55 -115 -228l27 -311l-14 -88l28 -191l-14 -43q-6 -86 -74 -176l-219 15q-88 52 -119 161zM227 479q43 -57 103 -102q-44 61 -103 102zM354 127q6 -28 31 -43l43 72zM387 1210 q20 -59 59 -88q-16 49 -59 88zM530 1188l29 -43l57 57q-2 14 -24 113zM885 647q27 35 28 72zM901 1249l17 -43v43h-17zM905 147l15 -14q80 6 104 74l-104 14zM942 952q14 -47 82 -71q-14 46 -82 71zM971 547q9 -101 86 -172q0 101 -86 172zM977 1106q4 -66 84 -119 q-6 68 -84 119z" />
<glyph unicode="&#xe0;" horiz-adv-x="1128" d="M-70 123q37 115 115 244l14 145l101 272l57 113q14 78 43 145q20 57 57 129q37 119 158 201l172 -29q61 -12 129 -43q39 -45 74 -114l29 -144l301 -790q34 -58 43 -129l-115 -72l-158 -28q-59 18 -114 57q-41 82 -60 158l-129 -15l-172 15q-52 -22 -86 -86l-72 -115 l-157 -29l-158 15zM174 166l14 72v28h-14v-100zM274 713q14 -68 72 -115q-21 56 -72 115zM332 770h28l-14 29zM360 842l43 -15l58 158l-29 43q-45 -88 -72 -186zM403 438l15 -43l14 43h-29zM446 1057l29 -15l57 29q-23 39 -71 72zM475 567q59 -23 129 -28l74 16l-43 170 q-23 98 -60 203q-25 -125 -71 -246zM489 1229l43 -29q-12 23 -43 29zM620 1028q6 -35 44 -57q-13 32 -44 57zM692 928q27 35 29 71zM692 1100l15 -86l28 86l-28 28zM721 395h55l60 -86q27 39 28 86q-29 33 -88 86q-32 -27 -55 -86zM819 670q14 -63 88 -115zM907 367h43 l-14 59zM922 252l71 -29l15 115l-43 29q-12 -56 -43 -115zM378 1778q68 61 132 67q66 6 100 -31l6 -24l12 -33l82 -151q29 -59 37 -127l-68 -74l-32 -12l-23 8q-55 41 -117 102l-102 119l-4 22q-29 52 -23 134z" />
<glyph unicode="&#xe1;" horiz-adv-x="1128" d="M-72 123q37 115 115 244l14 145l101 272l57 113q14 78 43 145q20 57 57 129q37 119 158 201l172 -29q61 -12 129 -43q39 -45 74 -114l29 -144l301 -790q34 -58 43 -129l-115 -72l-158 -28q-59 18 -114 57q-41 82 -60 158l-129 -15l-172 15q-52 -22 -86 -86l-72 -115 l-157 -29l-158 15zM172 166l14 72v28h-14v-100zM272 713q14 -68 72 -115q-21 56 -72 115zM330 770h28l-14 29zM358 842l43 -15l58 158l-29 43q-45 -88 -72 -186zM401 438l15 -43l14 43h-29zM444 1057l29 -15l57 29q-23 39 -71 72zM473 567q59 -23 129 -28l74 16l-43 170 q-23 98 -60 203q-25 -125 -71 -246zM487 1229l43 -29q-12 23 -43 29zM618 1028q6 -35 44 -57q-13 32 -44 57zM690 928q27 35 29 71zM690 1100l15 -86l28 86l-28 28zM719 395h55l60 -86q27 39 28 86q-29 33 -88 86q-32 -27 -55 -86zM817 670q14 -63 88 -115zM905 367h43 l-14 59zM920 252l71 -29l15 115l-43 29q-12 -56 -43 -115zM452 1485q8 68 37 127l117 145l12 31l6 24q33 35 84 35q43 0 156 -80q6 -82 -23 -133l-34 -47q-61 -61 -117 -102l-135 -86l-33 12z" />
<glyph unicode="&#xe2;" horiz-adv-x="1128" d="M-72 123q37 115 115 244l14 145l101 272l57 113q14 78 43 145q20 57 57 129q37 119 158 201l172 -29q61 -12 129 -43q39 -45 74 -114l29 -144l301 -790q34 -58 43 -129l-115 -72l-158 -28q-59 18 -114 57q-41 82 -60 158l-129 -15l-172 15q-52 -22 -86 -86l-72 -115 l-157 -29l-158 15zM172 166l14 72v28h-14v-100zM272 713q14 -68 72 -115q-21 56 -72 115zM330 770h28l-14 29zM358 842l43 -15l58 158l-29 43q-45 -88 -72 -186zM401 438l15 -43l14 43h-29zM444 1057l29 -15l57 29q-23 39 -71 72zM473 567q59 -23 129 -28l74 16l-43 170 q-23 98 -60 203q-25 -125 -71 -246zM487 1229l43 -29q-12 23 -43 29zM618 1028q6 -35 44 -57q-13 32 -44 57zM690 928q27 35 29 71zM690 1100l15 -86l28 86l-28 28zM719 395h55l60 -86q27 39 28 86q-29 33 -88 86q-32 -27 -55 -86zM817 670q14 -63 88 -115zM905 367h43 l-14 59zM920 252l71 -29l15 115l-43 29q-12 -56 -43 -115zM324 1452q14 84 35 151l53 146l21 14q31 49 79 88l58 -6q84 -4 127 8l41 -53l2 -35l35 -47l65 -139l-4 -144l-104 -65l-33 22l-82 123q-16 61 -29 96l-45 -139q-39 -51 -94 -92l-96 25l-29 22v25z" />
<glyph unicode="&#xe3;" horiz-adv-x="1128" d="M-72 123q37 115 115 244l14 145l101 272l57 113q14 78 43 145q20 57 57 129q37 119 158 201l172 -29q61 -12 129 -43q39 -45 74 -114l29 -144l301 -790q34 -58 43 -129l-115 -72l-158 -28q-59 18 -114 57q-41 82 -60 158l-129 -15l-172 15q-52 -22 -86 -86l-72 -115 l-157 -29l-158 15zM172 166l14 72v28h-14v-100zM272 713q14 -68 72 -115q-21 56 -72 115zM330 770h28l-14 29zM358 842l43 -15l58 158l-29 43q-45 -88 -72 -186zM401 438l15 -43l14 43h-29zM444 1057l29 -15l57 29q-23 39 -71 72zM473 567q59 -23 129 -28l74 16l-43 170 q-23 98 -60 203q-25 -125 -71 -246zM487 1229l43 -29q-12 23 -43 29zM618 1028q6 -35 44 -57q-13 32 -44 57zM690 928q27 35 29 71zM690 1100l15 -86l28 86l-28 28zM719 395h55l60 -86q27 39 28 86q-29 33 -88 86q-32 -27 -55 -86zM817 670q14 -63 88 -115zM905 367h43 l-14 59zM920 252l71 -29l15 115l-43 29q-12 -56 -43 -115zM201 1597l66 102v50l2 24l41 39q76 -20 161 -20l58 6l4 -4l6 2q51 -27 94 -70l43 -100q12 25 29 69l84 90l33 17l104 -47l2 -105l-94 -90l-35 -35l-2 -24l-41 -39q-31 6 -127 6l-29 -19l-4 5l-6 -2q-55 29 -94 67 l-43 103q-12 -25 -29 -70l-84 -90l-32 -17l-105 48z" />
<glyph unicode="&#xe4;" horiz-adv-x="1128" d="M-72 123q37 115 115 244l14 145l101 272l57 113q14 78 43 145q20 57 57 129q37 119 158 201l172 -29q61 -12 129 -43q39 -45 74 -114l29 -144l301 -790q34 -58 43 -129l-115 -72l-158 -28q-59 18 -114 57q-41 82 -60 158l-129 -15l-172 15q-52 -22 -86 -86l-72 -115 l-157 -29l-158 15zM172 166l14 72v28h-14v-100zM272 713q14 -68 72 -115q-21 56 -72 115zM330 770h28l-14 29zM358 842l43 -15l58 158l-29 43q-45 -88 -72 -186zM401 438l15 -43l14 43h-29zM444 1057l29 -15l57 29q-23 39 -71 72zM473 567q59 -23 129 -28l74 16l-43 170 q-23 98 -60 203q-25 -125 -71 -246zM487 1229l43 -29q-12 23 -43 29zM618 1028q6 -35 44 -57q-13 32 -44 57zM690 928q27 35 29 71zM690 1100l15 -86l28 86l-28 28zM719 395h55l60 -86q27 39 28 86q-29 33 -88 86q-32 -27 -55 -86zM817 670q14 -63 88 -115zM905 367h43 l-14 59zM920 252l71 -29l15 115l-43 29q-12 -56 -43 -115zM291 1593q25 47 61 80l88 51q53 -14 97 -51l10 -27l-10 -61v-27q-4 -59 -17 -112l-114 -10q-45 8 -89 45zM641 1601q10 41 35 105l115 18q45 -14 88 -53l16 -123q-20 -39 -61 -69l-89 -54q-45 14 -86 54z" />
<glyph unicode="&#xe5;" />
<glyph unicode="&#xe6;" horiz-adv-x="1820" />
<glyph unicode="&#xe7;" horiz-adv-x="1300" d="M90 608l14 58l-14 143l43 182l72 158l268 182l184 43l197 -28l158 -70l127 -115l84 -139l-99 -129q-86 -37 -170 -57q-49 39 -112 112q-84 35 -170 58l-144 -84q-35 -76 -55 -170q2 -86 29 -199q27 -72 69 -141q74 -37 156 -43q70 27 158 71q37 61 112 113l142 -84 q51 -53 69 -143l-98 -127q-55 -49 -113 -113q-84 -35 -170 -57l-213 -15l-184 43q-72 43 -141 101l-113 112l-72 156zM248 752q12 -57 55 -113q-6 60 -55 113zM289 608l14 -26v26h-14zM303 821q39 23 57 72q-34 -23 -57 -72zM344 1006h43v16l43 111h-55zM375 383 q29 -121 153 -127zM387 977l14 -29v29h-14zM586 1161l57 -28l170 43l-43 43zM614 141l29 58v28h-14zM756 227q12 -31 43 -43q-12 28 -43 43zM885 1063l69 14l27 56h-84zM1012 342l12 -43l14 43h-26zM473 -182l46 39l49 8l45 -33q27 -53 71 -70l27 31l-20 64q-31 49 -62 86 l-45 108l23 58h12l10 6l4 -6h25q51 -6 78 -50l59 -86q33 -51 51 -100l10 -16l13 -86l-6 -31q-29 -49 -62 -88q-47 -43 -90 -55l-104 -9l-72 72l-51 102q-7 19 -11 56z" />
<glyph unicode="&#xe8;" horiz-adv-x="1214" d="M86 672l29 143l-29 146l29 45l-15 114l15 31v86q23 76 73 145l232 -28l231 14l189 -14l145 28l43 -28q31 -95 43 -203q-14 -80 -100 -131l-451 12l-55 -43l43 -115l217 29l57 -14l160 14q83 -22 117 -117q-8 -96 -60 -202l-202 -15l-232 15q-78 -25 -116 -115 q68 -61 159 -88q106 27 232 29h145l31 14l12 -14h43q59 -59 59 -160v-131l-59 -72l-491 14l-43 -28l-131 14q-66 -8 -146 -45q-78 35 -160 102v508zM231 612q14 -49 58 -88q-13 55 -58 88zM231 874l15 -73l14 -29l14 102q-4 18 -28 29zM246 424l43 -29q-10 19 -43 29z M246 1063q6 -27 28 -43zM260 1151l14 -31v31h-14zM317 352q2 -102 103 -145q-27 77 -103 145zM362 772q6 -27 29 -43zM420 684l88 16l-43 43zM651 221l45 15q-4 33 -28 57zM395 1784q68 61 132 67q66 6 100 -31l6 -24l12 -33l82 -151q29 -59 37 -127l-68 -74l-32 -12l-23 8 q-55 41 -117 102l-102 119l-4 22q-29 52 -23 134z" />
<glyph unicode="&#xe9;" horiz-adv-x="1214" d="M86 672l29 143l-29 146l29 45l-15 114l15 31v86q23 76 73 145l232 -28l231 14l189 -14l145 28l43 -28q31 -95 43 -203q-14 -80 -100 -131l-451 12l-55 -43l43 -115l217 29l57 -14l160 14q83 -22 117 -117q-8 -96 -60 -202l-202 -15l-232 15q-78 -25 -116 -115 q68 -61 159 -88q106 27 232 29h145l31 14l12 -14h43q59 -59 59 -160v-131l-59 -72l-491 14l-43 -28l-131 14q-66 -8 -146 -45q-78 35 -160 102v508zM231 612q14 -49 58 -88q-13 55 -58 88zM231 874l15 -73l14 -29l14 102q-4 18 -28 29zM246 424l43 -29q-10 19 -43 29z M246 1063q6 -27 28 -43zM260 1151l14 -31v31h-14zM317 352q2 -102 103 -145q-27 77 -103 145zM362 772q6 -27 29 -43zM420 684l88 16l-43 43zM651 221l45 15q-4 33 -28 57zM461 1481q8 68 37 127l117 145l12 31l6 24q33 35 84 35q43 0 156 -80q6 -82 -23 -133l-34 -47 q-61 -61 -117 -102l-135 -86l-33 12z" />
<glyph unicode="&#xea;" horiz-adv-x="1214" d="M86 672l29 143l-29 146l29 45l-15 114l15 31v86q23 76 73 145l232 -28l231 14l189 -14l145 28l43 -28q31 -95 43 -203q-14 -80 -100 -131l-451 12l-55 -43l43 -115l217 29l57 -14l160 14q83 -22 117 -117q-8 -96 -60 -202l-202 -15l-232 15q-78 -25 -116 -115 q68 -61 159 -88q106 27 232 29h145l31 14l12 -14h43q59 -59 59 -160v-131l-59 -72l-491 14l-43 -28l-131 14q-66 -8 -146 -45q-78 35 -160 102v508zM231 612q14 -49 58 -88q-13 55 -58 88zM231 874l15 -73l14 -29l14 102q-4 18 -28 29zM246 424l43 -29q-10 19 -43 29z M246 1063q6 -27 28 -43zM260 1151l14 -31v31h-14zM317 352q2 -102 103 -145q-27 77 -103 145zM362 772q6 -27 29 -43zM420 684l88 16l-43 43zM651 221l45 15q-4 33 -28 57zM342 1460q14 84 35 151l53 146l21 14q31 49 79 88l58 -6q84 -4 127 8l41 -53l2 -35l35 -47l65 -139 l-4 -144l-104 -65l-33 22l-82 123q-16 61 -29 96l-45 -139q-39 -51 -94 -92l-96 25l-29 22v25z" />
<glyph unicode="&#xeb;" horiz-adv-x="1214" d="M86 672l29 143l-29 146l29 45l-15 114l15 31v86q23 76 73 145l232 -28l231 14l189 -14l145 28l43 -28q31 -95 43 -203q-14 -80 -100 -131l-451 12l-55 -43l43 -115l217 29l57 -14l160 14q83 -22 117 -117q-8 -96 -60 -202l-202 -15l-232 15q-78 -25 -116 -115 q68 -61 159 -88q106 27 232 29h145l31 14l12 -14h43q59 -59 59 -160v-131l-59 -72l-491 14l-43 -28l-131 14q-66 -8 -146 -45q-78 35 -160 102v508zM231 612q14 -49 58 -88q-13 55 -58 88zM231 874l15 -73l14 -29l14 102q-4 18 -28 29zM246 424l43 -29q-10 19 -43 29z M246 1063q6 -27 28 -43zM260 1151l14 -31v31h-14zM317 352q2 -102 103 -145q-27 77 -103 145zM362 772q6 -27 29 -43zM420 684l88 16l-43 43zM651 221l45 15q-4 33 -28 57zM287 1601q25 47 61 80l88 51q53 -14 97 -51l10 -27l-10 -61v-27q-4 -59 -17 -112l-114 -10 q-45 8 -89 45zM637 1609q10 41 35 105l115 18q45 -14 88 -53l16 -123q-20 -39 -61 -69l-89 -54q-45 14 -86 54z" />
<glyph unicode="&#xec;" horiz-adv-x="575" d="M90 250l14 55l17 172l-17 203l17 215q-16 109 -17 227l-14 158l31 43l184 59l189 -71l-17 -201l-12 -43l29 -117l-17 -43v-184h17l-17 -14l-12 -131l12 -41v-60l17 -112l-17 -29v-43l17 -160l-17 -55q-88 -41 -184 -58q-102 27 -189 70v160h-14zM219 895q39 -39 117 -43z M262 250l14 -31l29 -29q0 70 -29 146zM262 537l31 69l-31 31v-100zM293 694l12 -45v45h-12zM293 1210q6 -31 29 -45zM34 1788q68 61 132 67q66 6 100 -31l6 -24l12 -33l82 -151q29 -59 37 -127l-68 -74l-32 -12l-23 8q-55 41 -117 102l-102 119l-4 22q-29 52 -23 134z" />
<glyph unicode="&#xed;" horiz-adv-x="575" d="M90 250l14 55l17 172l-17 203l17 215q-16 109 -17 227l-14 158l31 43l184 59l189 -71l-17 -201l-12 -43l29 -117l-17 -43v-184h17l-17 -14l-12 -131l12 -41v-60l17 -112l-17 -29v-43l17 -160l-17 -55q-88 -41 -184 -58q-102 27 -189 70v160h-14zM219 895q39 -39 117 -43z M262 250l14 -31l29 -29q0 70 -29 146zM262 537l31 69l-31 31v-100zM293 694l12 -45v45h-12zM293 1210q6 -31 29 -45zM178 1485q8 68 37 127l117 145l12 31l6 24q33 35 84 35q43 0 156 -80q6 -82 -23 -133l-34 -47q-61 -61 -117 -102l-135 -86l-33 12z" />
<glyph unicode="&#xee;" horiz-adv-x="575" d="M90 250l14 55l17 172l-17 203l17 215q-16 109 -17 227l-14 158l31 43l184 59l189 -71l-17 -201l-12 -43l29 -117l-17 -43v-184h17l-17 -14l-12 -131l12 -41v-60l17 -112l-17 -29v-43l17 -160l-17 -55q-88 -41 -184 -58q-102 27 -189 70v160h-14zM219 895q39 -39 117 -43z M262 250l14 -31l29 -29q0 70 -29 146zM262 537l31 69l-31 31v-100zM293 694l12 -45v45h-12zM293 1210q6 -31 29 -45zM86.7988 1452q11.2002 84 28 151l42.3994 146l16.7998 14q24.7988 49 63.1982 88l46.3994 -6q67.1992 -4 101.599 8l32.7998 -53l1.59961 -35l28 -47 l51.999 -139l-3.2002 -144l-83.1982 -65l-26.4004 22l-65.5986 123q-12.7998 61 -23.1992 96l-36 -139q-31.1992 -51 -75.1982 -92l-76.7988 25l-23.2002 22v25z" />
<glyph unicode="&#xef;" horiz-adv-x="575" d="M90 250l14 55l17 172l-17 203l17 215q-16 109 -17 227l-14 158l31 43l184 59l189 -71l-17 -201l-12 -43l29 -117l-17 -43v-184h17l-17 -14l-12 -131l12 -41v-60l17 -112l-17 -29v-43l17 -160l-17 -55q-88 -41 -184 -58q-102 27 -189 70v160h-14zM219 895q39 -39 117 -43z M262 250l14 -31l29 -29q0 70 -29 146zM262 537l31 69l-31 31v-100zM293 694l12 -45v45h-12zM293 1210q6 -31 29 -45zM-12 1609q25 47 61 80l88 51q53 -14 97 -51l10 -27l-10 -61v-27q-4 -59 -17 -112l-114 -10q-45 8 -89 45zM338 1617q10 41 35 105l115 18q45 -14 88 -53 l16 -123q-20 -39 -61 -69l-89 -54q-45 14 -86 54z" />
<glyph unicode="&#xf0;" />
<glyph unicode="&#xf1;" horiz-adv-x="1333" d="M74 1272q63 84 188 100l246 -14l289 -535q31 -90 129 -143l-58 174l-43 389q12 43 43 86l201 57q111 -10 174 -114l-14 -101l14 -45l-14 -866l14 -129l-72 -72l-159 -14l-58 14q-102 16 -174 101l-272 549q-37 63 -117 114l74 -186l43 -477q-39 -92 -146 -129l-114 -15 l-43 15l-60 28l-43 101q12 63 15 114l-15 277l15 115l-15 28v361q-5 94 -28 217zM248 983l100 29l-72 114l-28 -100v-43zM262 274l43 -28l43 28q-12 40 -43 74zM276 449l29 -15l14 72l-28 14zM319 1157l101 -31q-2 57 -29 74zM348 997q10 -18 43 -28zM434 1026q0 -27 31 -43 q-6 28 -31 43zM465 926l12 -29v29h-12zM465 1083q2 -16 27 -28q-4 20 -27 28zM522 926q20 -55 72 -115q-15 58 -72 115zM780 492l31 -15l14 43h-28zM825 391q41 -27 86 -72l-28 130zM926 535l43 -29l28 88q-4 18 -28 29zM983 246q0 -18 29 -29q29 57 28 131l29 86l-43 29 l-14 -129zM1026 911l14 -43v43h-14zM1057 1069q27 29 26 88zM1069 838l14 -58l17 58h-31zM326 1593l66 102v50l2 24l41 39q76 -20 161 -20l58 6l4 -4l6 2q51 -27 94 -70l43 -100q12 25 29 69l84 90l33 17l104 -47l2 -105l-94 -90l-35 -35l-2 -24l-41 -39q-31 6 -127 6 l-29 -19l-4 5l-6 -2q-55 29 -94 67l-43 103q-12 -25 -29 -70l-84 -90l-32 -17l-105 48z" />
<glyph unicode="&#xf2;" horiz-adv-x="1417" d="M70 709l26 139q31 113 99 235q65 80 165 166q84 68 207 125q135 -6 307 -41q109 -27 236 -96l166 -168q23 -129 70 -264l-29 -291q-18 -114 -111 -221q-53 -94 -151 -180q-100 -51 -238 -99l-305 15q-90 39 -207 125q-86 76 -153 180q-41 90 -68 235zM221 668 q14 -51 70 -70q-21 45 -70 70zM262 737q2 -18 29 -28l14 84q-2 16 -29 26l15 -55q-15 -7 -29 -27zM305 430l27 -41l69 55q-12 31 -41 41q-18 -27 -55 -55zM305 930l27 14v29h-13zM401 973l41 26q-4 14 -26 29zM401 1124l15 -69l14 28zM442 682l84 -209q82 -53 195 -84 q106 49 180 96l41 183l-12 41q-15 108 -56 221q-88 51 -194 84q-86 -45 -168 -125zM485 223l97 -28q-6 55 -41 98zM541 1180q27 -49 82 -97q-2 72 -82 97zM651 1237h29v41h-14zM776 305l55 -67q-12 45 -55 67zM831 1194l15 -29v29h-15zM846 252q6 -27 28 -43zM956 1028 q10 -29 43 -29zM971 279q76 43 84 124q-59 -50 -84 -124zM983 1040h43v43h-14zM1040 834q12 -31 41 -41q31 31 56 81l-41 44zM1040 1139l15 -41v41h-15zM1151 653q4 -18 29 -28q-4 18 -29 28zM1165 528q16 -25 41 -26zM467 1784q68 61 132 67q66 6 100 -31l6 -24l12 -33 l82 -151q29 -59 37 -127l-68 -74l-32 -12l-23 8q-55 41 -117 102l-102 119l-4 22q-29 52 -23 134z" />
<glyph unicode="&#xf3;" horiz-adv-x="1417" d="M70 709l26 139q31 113 99 235q65 80 165 166q84 68 207 125q135 -6 307 -41q109 -27 236 -96l166 -168q23 -129 70 -264l-29 -291q-18 -114 -111 -221q-53 -94 -151 -180q-100 -51 -238 -99l-305 15q-90 39 -207 125q-86 76 -153 180q-41 90 -68 235zM221 668 q14 -51 70 -70q-21 45 -70 70zM262 737q2 -18 29 -28l14 84q-2 16 -29 26l15 -55q-15 -7 -29 -27zM305 430l27 -41l69 55q-12 31 -41 41q-18 -27 -55 -55zM305 930l27 14v29h-13zM401 973l41 26q-4 14 -26 29zM401 1124l15 -69l14 28zM442 682l84 -209q82 -53 195 -84 q106 49 180 96l41 183l-12 41q-15 108 -56 221q-88 51 -194 84q-86 -45 -168 -125zM485 223l97 -28q-6 55 -41 98zM541 1180q27 -49 82 -97q-2 72 -82 97zM651 1237h29v41h-14zM776 305l55 -67q-12 45 -55 67zM831 1194l15 -29v29h-15zM846 252q6 -27 28 -43zM956 1028 q10 -29 43 -29zM971 279q76 43 84 124q-59 -50 -84 -124zM983 1040h43v43h-14zM1040 834q12 -31 41 -41q31 31 56 81l-41 44zM1040 1139l15 -41v41h-15zM1151 653q4 -18 29 -28q-4 18 -29 28zM1165 528q16 -25 41 -26zM596 1485q8 68 37 127l117 145l12 31l6 24q33 35 84 35 q43 0 156 -80q6 -82 -23 -133l-34 -47q-61 -61 -117 -102l-135 -86l-33 12z" />
<glyph unicode="&#xf4;" horiz-adv-x="1417" d="M70 709l26 139q31 113 99 235q65 80 165 166q84 68 207 125q135 -6 307 -41q109 -27 236 -96l166 -168q23 -129 70 -264l-29 -291q-18 -114 -111 -221q-53 -94 -151 -180q-100 -51 -238 -99l-305 15q-90 39 -207 125q-86 76 -153 180q-41 90 -68 235zM221 668 q14 -51 70 -70q-21 45 -70 70zM262 737q2 -18 29 -28l14 84q-2 16 -29 26l15 -55q-15 -7 -29 -27zM305 430l27 -41l69 55q-12 31 -41 41q-18 -27 -55 -55zM305 930l27 14v29h-13zM401 973l41 26q-4 14 -26 29zM401 1124l15 -69l14 28zM442 682l84 -209q82 -53 195 -84 q106 49 180 96l41 183l-12 41q-15 108 -56 221q-88 51 -194 84q-86 -45 -168 -125zM485 223l97 -28q-6 55 -41 98zM541 1180q27 -49 82 -97q-2 72 -82 97zM651 1237h29v41h-14zM776 305l55 -67q-12 45 -55 67zM831 1194l15 -29v29h-15zM846 252q6 -27 28 -43zM956 1028 q10 -29 43 -29zM971 279q76 43 84 124q-59 -50 -84 -124zM983 1040h43v43h-14zM1040 834q12 -31 41 -41q31 31 56 81l-41 44zM1040 1139l15 -41v41h-15zM1151 653q4 -18 29 -28q-4 18 -29 28zM1165 528q16 -25 41 -26zM442 1452q14 84 35 151l53 146l21 14q31 49 79 88 l58 -6q84 -4 127 8l41 -53l2 -35l35 -47l65 -139l-4 -144l-104 -65l-33 22l-82 123q-16 61 -29 96l-45 -139q-39 -51 -94 -92l-96 25l-29 22v25z" />
<glyph unicode="&#xf5;" horiz-adv-x="1417" d="M70 709l26 139q31 113 99 235q65 80 165 166q84 68 207 125q135 -6 307 -41q109 -27 236 -96l166 -168q23 -129 70 -264l-29 -291q-18 -114 -111 -221q-53 -94 -151 -180q-100 -51 -238 -99l-305 15q-90 39 -207 125q-86 76 -153 180q-41 90 -68 235zM221 668 q14 -51 70 -70q-21 45 -70 70zM262 737q2 -18 29 -28l14 84q-2 16 -29 26l15 -55q-15 -7 -29 -27zM305 430l27 -41l69 55q-12 31 -41 41q-18 -27 -55 -55zM305 930l27 14v29h-13zM401 973l41 26q-4 14 -26 29zM401 1124l15 -69l14 28zM442 682l84 -209q82 -53 195 -84 q106 49 180 96l41 183l-12 41q-15 108 -56 221q-88 51 -194 84q-86 -45 -168 -125zM485 223l97 -28q-6 55 -41 98zM541 1180q27 -49 82 -97q-2 72 -82 97zM651 1237h29v41h-14zM776 305l55 -67q-12 45 -55 67zM831 1194l15 -29v29h-15zM846 252q6 -27 28 -43zM956 1028 q10 -29 43 -29zM971 279q76 43 84 124q-59 -50 -84 -124zM983 1040h43v43h-14zM1040 834q12 -31 41 -41q31 31 56 81l-41 44zM1040 1139l15 -41v41h-15zM1151 653q4 -18 29 -28q-4 18 -29 28zM1165 528q16 -25 41 -26zM346 1606l66 102v50l2 24l41 39q76 -20 161 -20l58 6 l4 -4l6 2q51 -27 94 -70l43 -100q12 25 29 69l84 90l33 17l104 -47l2 -105l-94 -90l-35 -35l-2 -24l-41 -39q-31 6 -127 6l-29 -19l-4 5l-6 -2q-55 29 -94 67l-43 103q-12 -25 -29 -70l-84 -90l-32 -17l-105 48z" />
<glyph unicode="&#xf6;" horiz-adv-x="1417" d="M70 709l26 139q31 113 99 235q65 80 165 166q84 68 207 125q135 -6 307 -41q109 -27 236 -96l166 -168q23 -129 70 -264l-29 -291q-18 -114 -111 -221q-53 -94 -151 -180q-100 -51 -238 -99l-305 15q-90 39 -207 125q-86 76 -153 180q-41 90 -68 235zM221 668 q14 -51 70 -70q-21 45 -70 70zM262 737q2 -18 29 -28l14 84q-2 16 -29 26l15 -55q-15 -7 -29 -27zM305 430l27 -41l69 55q-12 31 -41 41q-18 -27 -55 -55zM305 930l27 14v29h-13zM401 973l41 26q-4 14 -26 29zM401 1124l15 -69l14 28zM442 682l84 -209q82 -53 195 -84 q106 49 180 96l41 183l-12 41q-15 108 -56 221q-88 51 -194 84q-86 -45 -168 -125zM485 223l97 -28q-6 55 -41 98zM541 1180q27 -49 82 -97q-2 72 -82 97zM651 1237h29v41h-14zM776 305l55 -67q-12 45 -55 67zM831 1194l15 -29v29h-15zM846 252q6 -27 28 -43zM956 1028 q10 -29 43 -29zM971 279q76 43 84 124q-59 -50 -84 -124zM983 1040h43v43h-14zM1040 834q12 -31 41 -41q31 31 56 81l-41 44zM1040 1139l15 -41v41h-15zM1151 653q4 -18 29 -28q-4 18 -29 28zM1165 528q16 -25 41 -26zM379 1605q25 47 61 80l88 51q53 -14 97 -51l10 -27 l-10 -61v-27q-4 -59 -17 -112l-114 -10q-45 8 -89 45zM729 1613q10 41 35 105l115 18q45 -14 88 -53l16 -123q-20 -39 -61 -69l-89 -54q-45 14 -86 54z" />
<glyph unicode="&#xf7;" horiz-adv-x="1122" />
<glyph unicode="&#xf8;" horiz-adv-x="1249" />
<glyph unicode="&#xf9;" horiz-adv-x="1269" d="M74 553l28 100l-14 86l14 60l-14 157l14 58l-14 157q0 88 43 175l145 28l43 -14l130 14l28 -45l29 -143l-29 -58l-14 -417l14 -201q43 -66 101 -129l131 -14l57 43l57 172l-28 575l-15 43l15 14q20 86 71 146l187 43q98 -23 131 -129l28 -174q-27 -90 -28 -187l-17 -188 l17 -201l-31 -217l-100 -129l-144 -100l-186 -58l-145 29l-58 -14l-172 57q-70 51 -131 115l-115 131q-5 92 -28 215zM217 438l59 -14l-28 115zM260 1042q20 -33 74 -57q-19 41 -74 57zM477 264q18 -23 58 -28zM823 264q12 -31 43 -43q-9 28 -43 43zM924 481h28v29h-14z M967 1231q25 -29 57 -31zM981 625q8 -37 43 -72q-6 41 -43 72zM981 825q41 -33 86 -43zM981 897h29l14 45h-29zM981 1085h29v43h-15zM397 1778q68 61 132 67q66 6 100 -31l6 -24l12 -33l82 -151q29 -59 37 -127l-68 -74l-32 -12l-23 8q-55 41 -117 102l-102 119l-4 22 q-29 52 -23 134z" />
<glyph unicode="&#xfa;" horiz-adv-x="1269" d="M74 553l28 100l-14 86l14 60l-14 157l14 58l-14 157q0 88 43 175l145 28l43 -14l130 14l28 -45l29 -143l-29 -58l-14 -417l14 -201q43 -66 101 -129l131 -14l57 43l57 172l-28 575l-15 43l15 14q20 86 71 146l187 43q98 -23 131 -129l28 -174q-27 -90 -28 -187l-17 -188 l17 -201l-31 -217l-100 -129l-144 -100l-186 -58l-145 29l-58 -14l-172 57q-70 51 -131 115l-115 131q-5 92 -28 215zM217 438l59 -14l-28 115zM260 1042q20 -33 74 -57q-19 41 -74 57zM477 264q18 -23 58 -28zM823 264q12 -31 43 -43q-9 28 -43 43zM924 481h28v29h-14z M967 1231q25 -29 57 -31zM981 625q8 -37 43 -72q-6 41 -43 72zM981 825q41 -33 86 -43zM981 897h29l14 45h-29zM981 1085h29v43h-15zM540 1481q8 68 37 127l117 145l12 31l6 24q33 35 84 35q43 0 156 -80q6 -82 -23 -133l-34 -47q-61 -61 -117 -102l-135 -86l-33 12z" />
<glyph unicode="&#xfb;" horiz-adv-x="1269" d="M74 553l28 100l-14 86l14 60l-14 157l14 58l-14 157q0 88 43 175l145 28l43 -14l130 14l28 -45l29 -143l-29 -58l-14 -417l14 -201q43 -66 101 -129l131 -14l57 43l57 172l-28 575l-15 43l15 14q20 86 71 146l187 43q98 -23 131 -129l28 -174q-27 -90 -28 -187l-17 -188 l17 -201l-31 -217l-100 -129l-144 -100l-186 -58l-145 29l-58 -14l-172 57q-70 51 -131 115l-115 131q-5 92 -28 215zM217 438l59 -14l-28 115zM260 1042q20 -33 74 -57q-19 41 -74 57zM477 264q18 -23 58 -28zM823 264q12 -31 43 -43q-9 28 -43 43zM924 481h28v29h-14z M967 1231q25 -29 57 -31zM981 625q8 -37 43 -72q-6 41 -43 72zM981 825q41 -33 86 -43zM981 897h29l14 45h-29zM981 1085h29v43h-15zM397 1448q14 84 35 151l53 146l21 14q31 49 79 88l58 -6q84 -4 127 8l41 -53l2 -35l35 -47l65 -139l-4 -144l-104 -65l-33 22l-82 123 q-16 61 -29 96l-45 -139q-39 -51 -94 -92l-96 25l-29 22v25z" />
<glyph unicode="&#xfc;" horiz-adv-x="1269" d="M74 553l28 100l-14 86l14 60l-14 157l14 58l-14 157q0 88 43 175l145 28l43 -14l130 14l28 -45l29 -143l-29 -58l-14 -417l14 -201q43 -66 101 -129l131 -14l57 43l57 172l-28 575l-15 43l15 14q20 86 71 146l187 43q98 -23 131 -129l28 -174q-27 -90 -28 -187l-17 -188 l17 -201l-31 -217l-100 -129l-144 -100l-186 -58l-145 29l-58 -14l-172 57q-70 51 -131 115l-115 131q-5 92 -28 215zM217 438l59 -14l-28 115zM260 1042q20 -33 74 -57q-19 41 -74 57zM477 264q18 -23 58 -28zM823 264q12 -31 43 -43q-9 28 -43 43zM924 481h28v29h-14z M967 1231q25 -29 57 -31zM981 625q8 -37 43 -72q-6 41 -43 72zM981 825q41 -33 86 -43zM981 897h29l14 45h-29zM981 1085h29v43h-15zM340 1597q25 47 61 80l88 51q53 -14 97 -51l10 -27l-10 -61v-27q-4 -59 -17 -112l-114 -10q-45 8 -89 45zM690 1605q10 41 35 105l115 18 q45 -14 88 -53l16 -123q-20 -39 -61 -69l-89 -54q-45 14 -86 54z" />
<glyph unicode="&#xfd;" horiz-adv-x="1024" />
<glyph unicode="&#xfe;" />
<glyph unicode="&#xff;" horiz-adv-x="1024" />
<glyph unicode="&#x100;" horiz-adv-x="1363" />
<glyph unicode="&#x101;" />
<glyph unicode="&#x102;" horiz-adv-x="1363" />
<glyph unicode="&#x103;" />
<glyph unicode="&#x104;" horiz-adv-x="1363" />
<glyph unicode="&#x105;" />
<glyph unicode="&#x106;" horiz-adv-x="1478" />
<glyph unicode="&#x107;" horiz-adv-x="1024" />
<glyph unicode="&#x108;" horiz-adv-x="1478" />
<glyph unicode="&#x109;" horiz-adv-x="1024" />
<glyph unicode="&#x10a;" horiz-adv-x="1478" />
<glyph unicode="&#x10b;" horiz-adv-x="1024" />
<glyph unicode="&#x10c;" horiz-adv-x="1478" />
<glyph unicode="&#x10d;" horiz-adv-x="1024" />
<glyph unicode="&#x10e;" horiz-adv-x="1478" />
<glyph unicode="&#x10f;" horiz-adv-x="1257" />
<glyph unicode="&#x110;" horiz-adv-x="1478" />
<glyph unicode="&#x111;" />
<glyph unicode="&#x112;" horiz-adv-x="1363" />
<glyph unicode="&#x113;" />
<glyph unicode="&#x114;" horiz-adv-x="1363" />
<glyph unicode="&#x115;" />
<glyph unicode="&#x116;" horiz-adv-x="1363" />
<glyph unicode="&#x117;" />
<glyph unicode="&#x118;" horiz-adv-x="1363" />
<glyph unicode="&#x119;" />
<glyph unicode="&#x11a;" horiz-adv-x="1363" />
<glyph unicode="&#x11b;" />
<glyph unicode="&#x11c;" horiz-adv-x="1591" />
<glyph unicode="&#x11d;" />
<glyph unicode="&#x11e;" horiz-adv-x="1591" />
<glyph unicode="&#x11f;" />
<glyph unicode="&#x120;" horiz-adv-x="1591" />
<glyph unicode="&#x121;" />
<glyph unicode="&#x122;" horiz-adv-x="1591" />
<glyph unicode="&#x123;" />
<glyph unicode="&#x124;" horiz-adv-x="1478" />
<glyph unicode="&#x125;" />
<glyph unicode="&#x126;" horiz-adv-x="1478" />
<glyph unicode="&#x127;" />
<glyph unicode="&#x128;" horiz-adv-x="567" />
<glyph unicode="&#x129;" horiz-adv-x="567" />
<glyph unicode="&#x12a;" horiz-adv-x="567" />
<glyph unicode="&#x12b;" horiz-adv-x="567" />
<glyph unicode="&#x12c;" horiz-adv-x="567" />
<glyph unicode="&#x12d;" horiz-adv-x="567" />
<glyph unicode="&#x12e;" horiz-adv-x="567" />
<glyph unicode="&#x12f;" horiz-adv-x="454" />
<glyph unicode="&#x130;" horiz-adv-x="567" />
<glyph unicode="&#x131;" horiz-adv-x="575" d="M90 250l14 55l17 172l-17 203l17 215q-16 109 -17 227l-14 158l31 43l184 59l189 -71l-17 -201l-12 -43l29 -117l-17 -43v-184h17l-17 -14l-12 -131l12 -41v-60l17 -112l-17 -29v-43l17 -160l-17 -55q-88 -41 -184 -58q-102 27 -189 70v160h-14zM219 895q39 -39 117 -43z M262 250l14 -31l29 -29q0 70 -29 146zM262 537l31 69l-31 31v-100zM293 694l12 -45v45h-12zM293 1210q6 -31 29 -45z" />
<glyph unicode="&#x132;" horiz-adv-x="1503" />
<glyph unicode="&#x133;" horiz-adv-x="907" />
<glyph unicode="&#x134;" horiz-adv-x="1024" />
<glyph unicode="&#x135;" horiz-adv-x="454" />
<glyph unicode="&#x136;" horiz-adv-x="1363" />
<glyph unicode="&#x137;" horiz-adv-x="1024" />
<glyph unicode="&#x138;" horiz-adv-x="1024" />
<glyph unicode="&#x139;" />
<glyph unicode="&#x13a;" horiz-adv-x="454" />
<glyph unicode="&#x13b;" />
<glyph unicode="&#x13c;" horiz-adv-x="454" />
<glyph unicode="&#x13d;" />
<glyph unicode="&#x13e;" horiz-adv-x="595" />
<glyph unicode="&#x13f;" />
<glyph unicode="&#x140;" horiz-adv-x="681" />
<glyph unicode="&#x141;" />
<glyph unicode="&#x142;" horiz-adv-x="454" />
<glyph unicode="&#x143;" horiz-adv-x="1478" />
<glyph unicode="&#x144;" />
<glyph unicode="&#x145;" horiz-adv-x="1478" />
<glyph unicode="&#x146;" />
<glyph unicode="&#x147;" horiz-adv-x="1478" />
<glyph unicode="&#x148;" />
<glyph unicode="&#x149;" horiz-adv-x="1236" />
<glyph unicode="&#x14a;" horiz-adv-x="1480" />
<glyph unicode="&#x14b;" />
<glyph unicode="&#x14c;" horiz-adv-x="1591" />
<glyph unicode="&#x14d;" />
<glyph unicode="&#x14e;" horiz-adv-x="1591" />
<glyph unicode="&#x14f;" />
<glyph unicode="&#x150;" horiz-adv-x="1591" />
<glyph unicode="&#x151;" />
<glyph unicode="&#x152;" horiz-adv-x="2048" />
<glyph unicode="&#x153;" horiz-adv-x="1931" />
<glyph unicode="&#x154;" horiz-adv-x="1478" />
<glyph unicode="&#x155;" horiz-adv-x="681" />
<glyph unicode="&#x156;" horiz-adv-x="1478" />
<glyph unicode="&#x157;" horiz-adv-x="681" />
<glyph unicode="&#x158;" horiz-adv-x="1478" />
<glyph unicode="&#x159;" horiz-adv-x="681" />
<glyph unicode="&#x15a;" horiz-adv-x="1363" />
<glyph unicode="&#x15b;" horiz-adv-x="1024" />
<glyph unicode="&#x15c;" horiz-adv-x="1363" />
<glyph unicode="&#x15d;" horiz-adv-x="1024" />
<glyph unicode="&#x15e;" horiz-adv-x="1363" />
<glyph unicode="&#x15f;" horiz-adv-x="1024" />
<glyph unicode="&#x160;" horiz-adv-x="1363" />
<glyph unicode="&#x161;" horiz-adv-x="1024" />
<glyph unicode="&#x162;" horiz-adv-x="1249" />
<glyph unicode="&#x163;" horiz-adv-x="567" />
<glyph unicode="&#x164;" horiz-adv-x="1249" />
<glyph unicode="&#x165;" horiz-adv-x="768" />
<glyph unicode="&#x166;" horiz-adv-x="1249" />
<glyph unicode="&#x167;" horiz-adv-x="567" />
<glyph unicode="&#x168;" horiz-adv-x="1478" />
<glyph unicode="&#x169;" />
<glyph unicode="&#x16a;" horiz-adv-x="1478" />
<glyph unicode="&#x16b;" />
<glyph unicode="&#x16c;" horiz-adv-x="1478" />
<glyph unicode="&#x16d;" />
<glyph unicode="&#x16e;" horiz-adv-x="1478" />
<glyph unicode="&#x16f;" />
<glyph unicode="&#x170;" horiz-adv-x="1478" />
<glyph unicode="&#x171;" />
<glyph unicode="&#x172;" horiz-adv-x="1478" />
<glyph unicode="&#x173;" />
<glyph unicode="&#x174;" horiz-adv-x="1931" />
<glyph unicode="&#x175;" horiz-adv-x="1478" />
<glyph unicode="&#x176;" horiz-adv-x="1363" />
<glyph unicode="&#x177;" horiz-adv-x="1024" />
<glyph unicode="&#x178;" horiz-adv-x="1363" />
<glyph unicode="&#x179;" horiz-adv-x="1249" />
<glyph unicode="&#x17a;" horiz-adv-x="1024" />
<glyph unicode="&#x17b;" horiz-adv-x="1249" />
<glyph unicode="&#x17c;" horiz-adv-x="1024" />
<glyph unicode="&#x17d;" horiz-adv-x="1249" />
<glyph unicode="&#x17e;" horiz-adv-x="1024" />
<glyph unicode="&#x17f;" horiz-adv-x="454" />
<glyph unicode="&#x192;" />
<glyph unicode="&#x1fa;" horiz-adv-x="1363" />
<glyph unicode="&#x1fb;" />
<glyph unicode="&#x1fc;" horiz-adv-x="2048" />
<glyph unicode="&#x1fd;" horiz-adv-x="1820" />
<glyph unicode="&#x1fe;" horiz-adv-x="1591" />
<glyph unicode="&#x1ff;" horiz-adv-x="1249" />
<glyph unicode="&#x2c6;" horiz-adv-x="698" d="M86 1397q14 84 35 151l53 146l21 14q31 49 79 88l58 -6q84 -4 127 8l41 -53l2 -35l35 -47l65 -139l-4 -144l-104 -65l-33 22l-82 123q-16 61 -29 96l-45 -139q-39 -51 -94 -92l-96 25l-29 22v25z" />
<glyph unicode="&#x2c7;" horiz-adv-x="681" />
<glyph unicode="&#x2c9;" horiz-adv-x="681" />
<glyph unicode="&#x2d8;" horiz-adv-x="681" />
<glyph unicode="&#x2d9;" horiz-adv-x="681" />
<glyph unicode="&#x2da;" horiz-adv-x="681" />
<glyph unicode="&#x2db;" horiz-adv-x="681" />
<glyph unicode="&#x2dc;" horiz-adv-x="698" d="M86 1534l66 102v50l2 24l41 39q76 -20 161 -20l58 6l4 -4l6 2q51 -27 94 -70l43 -100q12 25 29 69l84 90l33 17l104 -47l2 -105l-94 -90l-35 -35l-2 -24l-41 -39q-31 6 -127 6l-29 -19l-4 5l-6 -2q-55 29 -94 67l-43 103q-12 -25 -29 -70l-84 -90l-32 -17l-105 48z" />
<glyph unicode="&#x2dd;" horiz-adv-x="681" />
<glyph unicode="&#x384;" horiz-adv-x="681" />
<glyph unicode="&#x385;" horiz-adv-x="681" />
<glyph unicode="&#x386;" horiz-adv-x="1366" />
<glyph unicode="&#x387;" horiz-adv-x="567" />
<glyph unicode="&#x388;" horiz-adv-x="1605" />
<glyph unicode="&#x389;" horiz-adv-x="1714" />
<glyph unicode="&#x38a;" horiz-adv-x="784" />
<glyph unicode="&#x38c;" horiz-adv-x="1585" />
<glyph unicode="&#x38e;" horiz-adv-x="1751" />
<glyph unicode="&#x38f;" horiz-adv-x="1540" />
<glyph unicode="&#x390;" horiz-adv-x="454" />
<glyph unicode="&#x391;" horiz-adv-x="1363" />
<glyph unicode="&#x392;" horiz-adv-x="1363" />
<glyph unicode="&#x393;" horiz-adv-x="1126" />
<glyph unicode="&#x394;" horiz-adv-x="1366" />
<glyph unicode="&#x395;" horiz-adv-x="1363" />
<glyph unicode="&#x396;" horiz-adv-x="1249" />
<glyph unicode="&#x397;" horiz-adv-x="1478" />
<glyph unicode="&#x398;" horiz-adv-x="1591" />
<glyph unicode="&#x399;" horiz-adv-x="567" />
<glyph unicode="&#x39a;" horiz-adv-x="1363" />
<glyph unicode="&#x39b;" horiz-adv-x="1366" />
<glyph unicode="&#x39c;" horiz-adv-x="1705" />
<glyph unicode="&#x39d;" horiz-adv-x="1478" />
<glyph unicode="&#x39e;" horiz-adv-x="1329" />
<glyph unicode="&#x39f;" horiz-adv-x="1591" />
<glyph unicode="&#x3a0;" horiz-adv-x="1478" />
<glyph unicode="&#x3a1;" horiz-adv-x="1363" />
<glyph unicode="&#x3a3;" horiz-adv-x="1265" />
<glyph unicode="&#x3a4;" horiz-adv-x="1249" />
<glyph unicode="&#x3a5;" horiz-adv-x="1363" />
<glyph unicode="&#x3a6;" horiz-adv-x="1632" />
<glyph unicode="&#x3a7;" horiz-adv-x="1363" />
<glyph unicode="&#x3a8;" horiz-adv-x="1710" />
<glyph unicode="&#x3a9;" horiz-adv-x="1529" />
<glyph unicode="&#x3aa;" horiz-adv-x="567" />
<glyph unicode="&#x3ab;" horiz-adv-x="1363" />
<glyph unicode="&#x3ac;" horiz-adv-x="1183" />
<glyph unicode="&#x3ad;" horiz-adv-x="911" />
<glyph unicode="&#x3ae;" />
<glyph unicode="&#x3af;" horiz-adv-x="454" />
<glyph unicode="&#x3b0;" horiz-adv-x="1118" />
<glyph unicode="&#x3b1;" horiz-adv-x="1183" />
<glyph unicode="&#x3b2;" horiz-adv-x="1177" />
<glyph unicode="&#x3b3;" horiz-adv-x="1024" />
<glyph unicode="&#x3b4;" />
<glyph unicode="&#x3b5;" horiz-adv-x="911" />
<glyph unicode="&#x3b6;" horiz-adv-x="901" />
<glyph unicode="&#x3b7;" />
<glyph unicode="&#x3b8;" />
<glyph unicode="&#x3b9;" horiz-adv-x="454" />
<glyph unicode="&#x3ba;" horiz-adv-x="1024" />
<glyph unicode="&#x3bb;" horiz-adv-x="1024" />
<glyph unicode="&#x3bc;" horiz-adv-x="1179" />
<glyph unicode="&#x3bd;" horiz-adv-x="1024" />
<glyph unicode="&#x3be;" horiz-adv-x="915" />
<glyph unicode="&#x3bf;" />
<glyph unicode="&#x3c0;" horiz-adv-x="1411" />
<glyph unicode="&#x3c1;" horiz-adv-x="1163" />
<glyph unicode="&#x3c2;" horiz-adv-x="985" />
<glyph unicode="&#x3c3;" horiz-adv-x="1263" />
<glyph unicode="&#x3c4;" horiz-adv-x="808" />
<glyph unicode="&#x3c5;" horiz-adv-x="1118" />
<glyph unicode="&#x3c6;" horiz-adv-x="1327" />
<glyph unicode="&#x3c7;" horiz-adv-x="1073" />
<glyph unicode="&#x3c8;" horiz-adv-x="1458" />
<glyph unicode="&#x3c9;" horiz-adv-x="1597" />
<glyph unicode="&#x3ca;" horiz-adv-x="454" />
<glyph unicode="&#x3cb;" horiz-adv-x="1118" />
<glyph unicode="&#x3cc;" />
<glyph unicode="&#x3cd;" horiz-adv-x="1118" />
<glyph unicode="&#x3ce;" horiz-adv-x="1597" />
<glyph unicode="&#x401;" horiz-adv-x="1366" />
<glyph unicode="&#x402;" horiz-adv-x="1769" />
<glyph unicode="&#x403;" horiz-adv-x="1107" />
<glyph unicode="&#x404;" horiz-adv-x="1470" />
<glyph unicode="&#x405;" horiz-adv-x="1363" />
<glyph unicode="&#x406;" horiz-adv-x="567" />
<glyph unicode="&#x407;" horiz-adv-x="567" />
<glyph unicode="&#x408;" horiz-adv-x="1024" />
<glyph unicode="&#x409;" horiz-adv-x="2164" />
<glyph unicode="&#x40a;" horiz-adv-x="2068" />
<glyph unicode="&#x40b;" horiz-adv-x="1748" />
<glyph unicode="&#x40c;" horiz-adv-x="1191" />
<glyph unicode="&#x40e;" horiz-adv-x="1300" />
<glyph unicode="&#x40f;" horiz-adv-x="1470" />
<glyph unicode="&#x410;" horiz-adv-x="1363" />
<glyph unicode="&#x411;" horiz-adv-x="1343" />
<glyph unicode="&#x412;" horiz-adv-x="1363" />
<glyph unicode="&#x413;" horiz-adv-x="1107" />
<glyph unicode="&#x414;" horiz-adv-x="1386" />
<glyph unicode="&#x415;" horiz-adv-x="1363" />
<glyph unicode="&#x416;" horiz-adv-x="1890" />
<glyph unicode="&#x417;" horiz-adv-x="1236" />
<glyph unicode="&#x418;" horiz-adv-x="1470" />
<glyph unicode="&#x419;" horiz-adv-x="1470" />
<glyph unicode="&#x41a;" horiz-adv-x="1191" />
<glyph unicode="&#x41b;" horiz-adv-x="1343" />
<glyph unicode="&#x41c;" horiz-adv-x="1705" />
<glyph unicode="&#x41d;" horiz-adv-x="1478" />
<glyph unicode="&#x41e;" horiz-adv-x="1591" />
<glyph unicode="&#x41f;" horiz-adv-x="1470" />
<glyph unicode="&#x420;" horiz-adv-x="1363" />
<glyph unicode="&#x421;" horiz-adv-x="1478" />
<glyph unicode="&#x422;" horiz-adv-x="1249" />
<glyph unicode="&#x423;" horiz-adv-x="1300" />
<glyph unicode="&#x424;" horiz-adv-x="1556" />
<glyph unicode="&#x425;" horiz-adv-x="1363" />
<glyph unicode="&#x426;" horiz-adv-x="1513" />
<glyph unicode="&#x427;" horiz-adv-x="1363" />
<glyph unicode="&#x428;" horiz-adv-x="1875" />
<glyph unicode="&#x429;" horiz-adv-x="1918" />
<glyph unicode="&#x42a;" horiz-adv-x="1619" />
<glyph unicode="&#x42b;" horiz-adv-x="1812" />
<glyph unicode="&#x42c;" horiz-adv-x="1343" />
<glyph unicode="&#x42d;" horiz-adv-x="1470" />
<glyph unicode="&#x42e;" horiz-adv-x="2068" />
<glyph unicode="&#x42f;" horiz-adv-x="1478" />
<glyph unicode="&#x430;" />
<glyph unicode="&#x431;" horiz-adv-x="1171" />
<glyph unicode="&#x432;" horiz-adv-x="1087" />
<glyph unicode="&#x433;" horiz-adv-x="745" />
<glyph unicode="&#x434;" horiz-adv-x="1193" />
<glyph unicode="&#x435;" />
<glyph unicode="&#x436;" horiz-adv-x="1368" />
<glyph unicode="&#x437;" horiz-adv-x="937" />
<glyph unicode="&#x438;" horiz-adv-x="1142" />
<glyph unicode="&#x439;" horiz-adv-x="1142" />
<glyph unicode="&#x43a;" horiz-adv-x="894" />
<glyph unicode="&#x43b;" horiz-adv-x="1193" />
<glyph unicode="&#x43c;" horiz-adv-x="1406" />
<glyph unicode="&#x43d;" horiz-adv-x="1130" />
<glyph unicode="&#x43e;" />
<glyph unicode="&#x43f;" horiz-adv-x="1107" />
<glyph unicode="&#x440;" />
<glyph unicode="&#x441;" horiz-adv-x="1024" />
<glyph unicode="&#x442;" horiz-adv-x="937" />
<glyph unicode="&#x443;" horiz-adv-x="1024" />
<glyph unicode="&#x444;" horiz-adv-x="1683" />
<glyph unicode="&#x445;" horiz-adv-x="1024" />
<glyph unicode="&#x446;" horiz-adv-x="1171" />
<glyph unicode="&#x447;" horiz-adv-x="1064" />
<glyph unicode="&#x448;" horiz-adv-x="1642" />
<glyph unicode="&#x449;" horiz-adv-x="1683" />
<glyph unicode="&#x44a;" horiz-adv-x="1280" />
<glyph unicode="&#x44b;" horiz-adv-x="1470" />
<glyph unicode="&#x44c;" horiz-adv-x="1064" />
<glyph unicode="&#x44d;" horiz-adv-x="1044" />
<glyph unicode="&#x44e;" horiz-adv-x="1536" />
<glyph unicode="&#x44f;" horiz-adv-x="1107" />
<glyph unicode="&#x451;" />
<glyph unicode="&#x452;" />
<glyph unicode="&#x453;" horiz-adv-x="745" />
<glyph unicode="&#x454;" horiz-adv-x="1044" />
<glyph unicode="&#x455;" horiz-adv-x="1024" />
<glyph unicode="&#x456;" horiz-adv-x="454" />
<glyph unicode="&#x457;" horiz-adv-x="567" />
<glyph unicode="&#x458;" horiz-adv-x="454" />
<glyph unicode="&#x459;" horiz-adv-x="1855" />
<glyph unicode="&#x45a;" horiz-adv-x="1662" />
<glyph unicode="&#x45b;" />
<glyph unicode="&#x45c;" horiz-adv-x="894" />
<glyph unicode="&#x45e;" horiz-adv-x="1024" />
<glyph unicode="&#x45f;" horiz-adv-x="1130" />
<glyph unicode="&#x490;" horiz-adv-x="999" />
<glyph unicode="&#x491;" horiz-adv-x="841" />
<glyph unicode="&#x1e80;" horiz-adv-x="1931" />
<glyph unicode="&#x1e81;" horiz-adv-x="1478" />
<glyph unicode="&#x1e82;" horiz-adv-x="1931" />
<glyph unicode="&#x1e83;" horiz-adv-x="1478" />
<glyph unicode="&#x1e84;" horiz-adv-x="1931" />
<glyph unicode="&#x1e85;" horiz-adv-x="1478" />
<glyph unicode="&#x1ef2;" horiz-adv-x="1363" />
<glyph unicode="&#x1ef3;" horiz-adv-x="1024" />
<glyph unicode="&#x2000;" horiz-adv-x="929" />
<glyph unicode="&#x2001;" horiz-adv-x="1861" />
<glyph unicode="&#x2002;" horiz-adv-x="929" />
<glyph unicode="&#x2003;" horiz-adv-x="1861" />
<glyph unicode="&#x2004;" horiz-adv-x="620" />
<glyph unicode="&#x2005;" horiz-adv-x="464" />
<glyph unicode="&#x2006;" horiz-adv-x="309" />
<glyph unicode="&#x2007;" horiz-adv-x="309" />
<glyph unicode="&#x2008;" horiz-adv-x="231" />
<glyph unicode="&#x2009;" horiz-adv-x="370" />
<glyph unicode="&#x200a;" horiz-adv-x="102" />
<glyph unicode="&#x2010;" horiz-adv-x="864" d="M94 795q33 78 127 112h242v15h151l103 -15q59 -86 61 -200q-66 -76 -178 -91l-37 -12l-88 12l-90 -12q-113 4 -242 27q-43 60 -49 164z" />
<glyph unicode="&#x2011;" horiz-adv-x="864" d="M94 795q33 78 127 112h242v15h151l103 -15q59 -86 61 -200q-66 -76 -178 -91l-37 -12l-88 12l-90 -12q-113 4 -242 27q-43 60 -49 164z" />
<glyph unicode="&#x2012;" horiz-adv-x="864" d="M94 795q33 78 127 112h242v15h151l103 -15q59 -86 61 -200q-66 -76 -178 -91l-37 -12l-88 12l-90 -12q-113 4 -242 27q-43 60 -49 164z" />
<glyph unicode="&#x2013;" />
<glyph unicode="&#x2014;" horiz-adv-x="2048" />
<glyph unicode="&#x2015;" horiz-adv-x="2048" />
<glyph unicode="&#x2017;" horiz-adv-x="1130" />
<glyph unicode="&#x2018;" horiz-adv-x="389" d="M90 1184v155l10 23q12 55 45 108l166 -20q6 -25 11 -88l-11 -23l-12 -32l12 -179q-16 -57 -55 -120l-100 -11l-33 11l-10 22q-17 78 -23 154z" />
<glyph unicode="&#x2019;" horiz-adv-x="389" d="M90 1184v155l10 23q12 55 45 108l166 -20q6 -25 11 -88l-11 -23l-12 -32l12 -179q-16 -57 -55 -120l-100 -11l-33 11l-10 22q-17 78 -23 154z" />
<glyph unicode="&#x201a;" horiz-adv-x="454" />
<glyph unicode="&#x201b;" horiz-adv-x="454" />
<glyph unicode="&#x201c;" horiz-adv-x="698" d="M90 1184v155l10 23q12 55 45 108l166 -20q6 -25 11 -88l-11 -23l-12 -32l12 -179q-16 -57 -55 -120l-100 -11l-33 11l-10 22q-17 78 -23 154zM367 1174q10 86 10 176q16 63 65 120q76 -4 156 -30l23 -68l-13 -33l-20 -32l10 -156q-14 -63 -55 -131l-121 -23l-23 33z" />
<glyph unicode="&#x201d;" horiz-adv-x="698" d="M90 1184v155l10 23q12 55 45 108l166 -20q6 -25 11 -88l-11 -23l-12 -32l12 -179q-16 -57 -55 -120l-100 -11l-33 11l-10 22q-17 78 -23 154zM367 1174q10 86 10 176q16 63 65 120q76 -4 156 -30l23 -68l-13 -33l-20 -32l10 -156q-14 -63 -55 -131l-121 -23l-23 33z" />
<glyph unicode="&#x201e;" horiz-adv-x="681" />
<glyph unicode="&#x2020;" />
<glyph unicode="&#x2021;" />
<glyph unicode="&#x2022;" horiz-adv-x="716" />
<glyph unicode="&#x2026;" horiz-adv-x="2048" />
<glyph unicode="&#x202f;" horiz-adv-x="370" />
<glyph unicode="&#x2030;" horiz-adv-x="2048" />
<glyph unicode="&#x2032;" horiz-adv-x="382" />
<glyph unicode="&#x2033;" horiz-adv-x="724" />
<glyph unicode="&#x2039;" horiz-adv-x="681" />
<glyph unicode="&#x203a;" horiz-adv-x="681" />
<glyph unicode="&#x203c;" horiz-adv-x="1024" />
<glyph unicode="&#x203e;" horiz-adv-x="681" />
<glyph unicode="&#x2044;" horiz-adv-x="339" />
<glyph unicode="&#x2215;" horiz-adv-x="339" />
<glyph unicode="&#x205f;" horiz-adv-x="464" />
<glyph unicode="&#x207f;" horiz-adv-x="745" />
<glyph unicode="&#x20a3;" />
<glyph unicode="&#x20a4;" />
<glyph unicode="&#x20a7;" horiz-adv-x="2238" />
<glyph unicode="&#x20ac;" horiz-adv-x="1290" d="M-12 592q6 47 78 80l32 2l4 61q-16 2 -51 2q-57 27 -63 68q31 23 112 39l-8 57l14 29l15 41l69 155l113 111l139 86l168 55q80 -6 185 -28l182 -43q49 -41 110 -113l113 -125q-18 -74 -70 -139q-66 -53 -139 -84q-74 29 -141 84l-125 96l-156 -70q-47 -47 -84 -102h150 l125 -4q74 -33 80 -82q-74 -29 -222 -35l-47 -6l-110 6l-2 -14l12 -41v-6h211q111 -12 158 -45q-6 -41 -64 -66q-94 -6 -276 -10l26 -84l142 -84q84 12 168 55l112 113q82 -10 156 -41q57 -47 110 -127q-29 -63 -84 -141l-126 -113l-140 -84l-153 -12l-43 12l-58 -12 l-139 26l-154 70l-196 268l-25 168q-69 11 -108 27zM233 748h27v40h-12zM260 705q23 -20 57 -27zM274 565h29v56h-14zM289 930q0 -23 28 -29q27 43 41 98q-10 16 -41 27zM317 510q14 -51 58 -84q-5 53 -58 84zM387 242q53 23 84 57q-39 -16 -84 -57zM555 1223q40 6 43 43z M569 1126q0 -27 29 -43zM610 242l29 14l-29 14v-28zM752 242q20 -25 57 -41q46 37 111 55q-6 35 -41 55zM795 1182q4 -33 26 -56l15 56h-41zM879 1083l57 43l-31 41z" />
<glyph unicode="&#x2105;" horiz-adv-x="1812" />
<glyph unicode="&#x2113;" horiz-adv-x="661" />
<glyph unicode="&#x2116;" horiz-adv-x="2195" />
<glyph unicode="&#x2122;" horiz-adv-x="2048" />
<glyph unicode="&#x2126;" horiz-adv-x="1572" />
<glyph unicode="&#x212e;" horiz-adv-x="1228" />
<glyph unicode="&#x215b;" horiz-adv-x="1705" />
<glyph unicode="&#x215c;" horiz-adv-x="1705" />
<glyph unicode="&#x215d;" horiz-adv-x="1705" />
<glyph unicode="&#x215e;" horiz-adv-x="1705" />
<glyph unicode="&#x2190;" horiz-adv-x="2048" />
<glyph unicode="&#x2191;" horiz-adv-x="1024" />
<glyph unicode="&#x2192;" horiz-adv-x="2048" />
<glyph unicode="&#x2193;" horiz-adv-x="1024" />
<glyph unicode="&#x2194;" horiz-adv-x="2048" />
<glyph unicode="&#x2195;" horiz-adv-x="1024" />
<glyph unicode="&#x21a8;" horiz-adv-x="1024" />
<glyph unicode="&#x2202;" horiz-adv-x="1011" />
<glyph unicode="&#x2206;" horiz-adv-x="1251" />
<glyph unicode="&#x220f;" horiz-adv-x="1685" />
<glyph unicode="&#x2211;" horiz-adv-x="1458" />
<glyph unicode="&#x2212;" horiz-adv-x="1193" />
<glyph unicode="&#x221a;" horiz-adv-x="1122" />
<glyph unicode="&#x221e;" horiz-adv-x="1458" />
<glyph unicode="&#x221f;" horiz-adv-x="2004" />
<glyph unicode="&#x2229;" horiz-adv-x="1470" />
<glyph unicode="&#x222b;" horiz-adv-x="559" />
<glyph unicode="&#x2248;" horiz-adv-x="1122" />
<glyph unicode="&#x2260;" horiz-adv-x="1122" />
<glyph unicode="&#x2261;" horiz-adv-x="1193" />
<glyph unicode="&#x2264;" horiz-adv-x="1122" />
<glyph unicode="&#x2265;" horiz-adv-x="1122" />
<glyph unicode="&#x2302;" horiz-adv-x="1236" />
<glyph unicode="&#x2310;" horiz-adv-x="1193" />
<glyph unicode="&#x2320;" horiz-adv-x="1236" />
<glyph unicode="&#x2321;" horiz-adv-x="1236" />
<glyph unicode="&#x2500;" horiz-adv-x="1449" />
<glyph unicode="&#x2502;" horiz-adv-x="1280" />
<glyph unicode="&#x250c;" horiz-adv-x="1449" />
<glyph unicode="&#x2510;" horiz-adv-x="1449" />
<glyph unicode="&#x2514;" horiz-adv-x="1449" />
<glyph unicode="&#x2518;" horiz-adv-x="1449" />
<glyph unicode="&#x251c;" horiz-adv-x="1449" />
<glyph unicode="&#x2524;" horiz-adv-x="1449" />
<glyph unicode="&#x252c;" horiz-adv-x="1449" />
<glyph unicode="&#x2534;" horiz-adv-x="1449" />
<glyph unicode="&#x253c;" horiz-adv-x="1449" />
<glyph unicode="&#x2550;" horiz-adv-x="1449" />
<glyph unicode="&#x2551;" horiz-adv-x="1449" />
<glyph unicode="&#x2552;" horiz-adv-x="1449" />
<glyph unicode="&#x2553;" horiz-adv-x="1449" />
<glyph unicode="&#x2554;" horiz-adv-x="1449" />
<glyph unicode="&#x2555;" horiz-adv-x="1449" />
<glyph unicode="&#x2556;" horiz-adv-x="1449" />
<glyph unicode="&#x2557;" horiz-adv-x="1449" />
<glyph unicode="&#x2558;" horiz-adv-x="1449" />
<glyph unicode="&#x2559;" horiz-adv-x="1449" />
<glyph unicode="&#x255a;" horiz-adv-x="1449" />
<glyph unicode="&#x255b;" horiz-adv-x="1449" />
<glyph unicode="&#x255c;" horiz-adv-x="1449" />
<glyph unicode="&#x255d;" horiz-adv-x="1449" />
<glyph unicode="&#x255e;" horiz-adv-x="1449" />
<glyph unicode="&#x255f;" horiz-adv-x="1449" />
<glyph unicode="&#x2560;" horiz-adv-x="1449" />
<glyph unicode="&#x2561;" horiz-adv-x="1449" />
<glyph unicode="&#x2562;" horiz-adv-x="1449" />
<glyph unicode="&#x2563;" horiz-adv-x="1449" />
<glyph unicode="&#x2564;" horiz-adv-x="1449" />
<glyph unicode="&#x2565;" horiz-adv-x="1449" />
<glyph unicode="&#x2566;" horiz-adv-x="1449" />
<glyph unicode="&#x2567;" horiz-adv-x="1449" />
<glyph unicode="&#x2568;" horiz-adv-x="1449" />
<glyph unicode="&#x2569;" horiz-adv-x="1449" />
<glyph unicode="&#x256a;" horiz-adv-x="1449" />
<glyph unicode="&#x256b;" horiz-adv-x="1449" />
<glyph unicode="&#x256c;" horiz-adv-x="1449" />
<glyph unicode="&#x2580;" horiz-adv-x="1449" />
<glyph unicode="&#x2584;" horiz-adv-x="1449" />
<glyph unicode="&#x2588;" horiz-adv-x="1449" />
<glyph unicode="&#x258c;" horiz-adv-x="1449" />
<glyph unicode="&#x2590;" horiz-adv-x="1449" />
<glyph unicode="&#x2591;" horiz-adv-x="1449" />
<glyph unicode="&#x2592;" horiz-adv-x="1449" />
<glyph unicode="&#x2593;" horiz-adv-x="1492" />
<glyph unicode="&#x25a0;" horiz-adv-x="1236" />
<glyph unicode="&#x25a1;" horiz-adv-x="1236" />
<glyph unicode="&#x25aa;" horiz-adv-x="724" />
<glyph unicode="&#x25ab;" horiz-adv-x="724" />
<glyph unicode="&#x25ac;" horiz-adv-x="2048" />
<glyph unicode="&#x25b2;" horiz-adv-x="2025" />
<glyph unicode="&#x25ba;" horiz-adv-x="2025" />
<glyph unicode="&#x25bc;" horiz-adv-x="2025" />
<glyph unicode="&#x25c4;" horiz-adv-x="2025" />
<glyph unicode="&#x25ca;" horiz-adv-x="1011" />
<glyph unicode="&#x25cb;" horiz-adv-x="1236" />
<glyph unicode="&#x25cf;" horiz-adv-x="1236" />
<glyph unicode="&#x25d8;" horiz-adv-x="1236" />
<glyph unicode="&#x25d9;" horiz-adv-x="1236" />
<glyph unicode="&#x25e6;" horiz-adv-x="724" />
<glyph unicode="&#x263a;" horiz-adv-x="2088" />
<glyph unicode="&#x263b;" horiz-adv-x="2154" />
<glyph unicode="&#x263c;" horiz-adv-x="1875" />
<glyph unicode="&#x2640;" horiz-adv-x="1536" />
<glyph unicode="&#x2642;" horiz-adv-x="1536" />
<glyph unicode="&#x2660;" horiz-adv-x="1087" />
<glyph unicode="&#x2663;" horiz-adv-x="1343" />
<glyph unicode="&#x2665;" horiz-adv-x="1214" />
<glyph unicode="&#x2666;" horiz-adv-x="1044" />
<glyph unicode="&#x266a;" horiz-adv-x="1024" />
<glyph unicode="&#x266b;" horiz-adv-x="1536" />
<glyph unicode="&#xe000;" horiz-adv-x="1380" d="M0 1380h1380v-1380h-1380v1380z" />
<glyph unicode="&#xf001;" horiz-adv-x="1024" />
<glyph unicode="&#xfb01;" horiz-adv-x="1024" />
<glyph unicode="&#xf002;" horiz-adv-x="1024" />
<glyph unicode="&#xfb02;" horiz-adv-x="1024" />
<glyph unicode="&#xf004;" horiz-adv-x="681" />
<glyph unicode="&#xf005;" horiz-adv-x="681" />
<glyph horiz-adv-x="1122" />
<glyph horiz-adv-x="681" />
</font>
</defs>
</svg>
